<?xml version="1.0" encoding="utf-8"?>
<!-- Generator: Adobe Illustrator 24.0.0, SVG Export Plug-In . SVG Version: 6.00 Build 0)  -->
<svg version="1.1" id="Layer_15" xmlns="http://www.w3.org/2000/svg" xmlns:xlink="http://www.w3.org/1999/xlink" x="0px" y="0px"
	 viewBox="0 0 182.896 301.452" enable-background="new 0 0 182.896 301.452" xml:space="preserve">
<g id="Grand_Isle">
	<polygon fill="#898989" stroke="#FFFFFF" stroke-width="0.75" points="22.139,33.181 22.053,32.112 22.677,31.488 23.387,31.222 
		23.832,31.754 	"/>
	<polygon fill="#898989" stroke="#FFFFFF" stroke-width="0.75" points="21.249,22.856 19.915,24.191 19.562,25.26 19.735,25.97 
		20.359,25.439 20.897,24.37 21.249,24.104 21.873,24.37 22.139,24.104 21.873,22.59 	"/>
	<polygon fill="#898989" stroke="#FFFFFF" stroke-width="0.75" points="17.245,35.047 16.448,34.244 16.176,33.268 16.448,32.736 
		15.911,32.644 15.021,32.909 14.755,35.406 14.397,35.671 12.531,34.868 12.086,35.758 11.017,36.116 8.972,42.165 9.33,42.969 
		9.058,46.88 9.503,48.394 9.151,51.866 11.462,51.774 12.531,54.177 12.352,55.333 12.796,55.598 13.686,54.888 14.224,53.374 
		15.731,53.374 16.269,52.663 16.176,51.063 17.245,50.173 16.8,48.48 16.09,47.77 16.003,46.435 15.114,45.811 14.31,47.862 
		13.155,47.59 12.444,47.862 11.999,46.701 12.265,45.724 13.507,45.545 13.952,45.1 14.842,43.234 14.755,41.986 15.645,39.762 
		15.466,39.051 15.824,38.52 16.8,38.606 17.338,38.248 18.049,36.74 17.869,36.023 17.424,35.937 	"/>
	<polygon fill="#898989" stroke="#FFFFFF" stroke-width="0.75" points="10.398,0.885 10.488,0.883 11.196,2.391 10.93,3.102 
		10.22,3.547 10.22,4.709 11.196,4.264 12.531,4.529 13.686,6.488 12.796,9.955 12.71,14.051 12.796,14.941 13.421,15.652 
		13.155,19.563 13.865,20.811 13.779,21.966 14.397,22.411 16.893,14.138 16.448,13.606 17.69,10.492 17.604,8.268 19.562,7.378 
		20.539,6.488 21.873,3.281 22.312,0.65 24.229,0.612 24.229,0.612 10.139,0.89 9.758,2.282 10.135,0.906 	"/>
	<polygon fill="#898989" stroke="#FFFFFF" stroke-width="0.75" points="11.11,21.256 11.82,20.545 11.641,19.39 12.444,15.917 
		11.82,14.848 9.948,14.496 8.613,18.673 8.261,21.435 7.724,21.966 8.44,23.301 8.348,24.191 9.682,24.901 10.393,24.37 
		10.665,23.035 11.283,22.146 	"/>
	<polygon fill="#898989" stroke="#FFFFFF" stroke-width="0.75" points="11.82,31.043 11.82,33.181 12.265,33.713 12.617,33.892 
		13.421,32.112 14.045,32.823 14.755,32.291 15.2,31.13 15.379,26.86 16.09,25.97 18.759,19.742 19.204,17.962 20.094,18.055 
		20.359,17.252 20.094,13.958 19.291,12.982 17.159,17.165 16.98,19.563 16.003,20.897 15.731,24.104 15.114,24.456 13.6,23.746 
		12.976,25.081 12.531,26.15 12.617,29.709 	"/>
</g>
<g id="Washington">
	<polygon fill="#898989" stroke="#FFFFFF" stroke-width="0.75" points="79.387,70.994 74.048,81.672 63.643,75.709 59.991,74.64 
		56.698,80.961 59.991,82.648 57.946,86.744 57.235,86.744 56.525,86.565 55.098,85.941 51.007,94.307 49.852,96.884 51.273,97.601 
		45.848,112.634 47.627,112.368 47.627,112.455 48.158,117.442 48.783,121.532 48.962,122.953 49.228,124.467 51.093,124.288 
		52.966,125.004 55.19,125.894 57.767,126.87 65.688,130.071 71.113,132.295 75.655,122.242 76.452,122.508 77.786,118.949 
		80.104,112.9 82.415,113.79 82.859,112.548 89.712,115.39 93.802,117.083 96.026,104.892 100.834,107.116 105.727,98.132 
		105.548,94.752 109.997,89.321 114.978,79.978 114.446,79.534 114.446,79.268 114.625,79.181 114.532,79.002 114.805,79.002 
		114.532,78.378 114.001,78.916 113.822,78.644 114.001,78.557 114.36,78.199 94.605,67.522 89.267,78.026 	"/>
</g>
<g id="Lamoille">
	<polygon fill="#898989" stroke="#FFFFFF" stroke-width="0.75" points="57.68,61.386 59.547,62.01 57.501,66.014 60.084,67.435 
		56.791,73.577 59.991,74.64 63.643,75.709 74.048,81.672 79.387,70.994 89.267,78.026 94.605,67.522 100.124,57.289 
		100.834,56.134 91.67,51.506 91.226,51.24 90.156,50.709 90.243,50.351 96.119,38.963 81.166,31.313 77.966,28.644 65.509,30.689 
		65.33,31.931 64.799,31.931 64.619,33.265 63.55,33.265 63.371,35.404 63.105,35.848 62.926,37.183 62.129,37.097 61.864,38.518 
		60.881,42.967 55.808,40.477 51.897,47.86 51.365,48.126 50.921,48.929 50.117,49.016 49.493,49.016 49.048,48.571 48.869,48.571 
		48.604,49.108 48.869,49.726 48.604,49.726 48.869,50.264 48.604,50.443 48.869,50.709 50.117,50.974 	"/>
</g>
<g id="Caledonia">
	<path fill="#898989" stroke="#FFFFFF" stroke-width="0.75" d="M144.34,74.108l4.362-5.518l-4.98-6.673l6.135-8.453l-6.315-4.628
		l6.673-9.163l-9.522-6.852l-6.759,9.256l-9.615-6.587l1.335,4.628l1.162,4.004l-5.338-2.577l-5.784,11.474l-4.986,9.608
		l-10.584-5.338l-5.518,10.232l19.755,10.677l-0.358,0.358l-0.179,0.087l0.179,0.272l0.531-0.538l0.272,0.624h-0.272l0.093,0.179
		l-0.179,0.087v0.266l0.532,0.445l-4.981,9.343l-4.449,5.431l0.179,3.38l-4.894,8.984l5.963,2.762l12.722-1.162l11.712,4.463
		l-2.308-4.535l1.069-3.114l0.532-3.293l-0.711-1.601v-1.872l-0.532-0.711l0.532-1.779l2.138-1.78l0.797-2.311l4.449-1.959
		l1.779-0.445l2.762-0.087l1.242-1.069l0.983-0.266l2.935,1.242h0.889l2.876-1.322c-3.055-4.13-6.111-8.26-9.166-12.39
		L144.34,74.108z"/>
</g>
<g id="Essex">
	<path fill="#898989" stroke="#FFFFFF" stroke-width="0.75" d="M180.975,0.179L144.548,1.11c-0.988,4.638-1.976,9.277-2.964,13.915
		l5.073,3.652l-2.935,4.004l-1.335,1.601l-0.092-0.087l-4.894,6.401l3.293,2.224l9.522,6.852l-6.673,9.163l6.315,4.628l-6.135,8.453
		l4.98,6.673l-4.362,5.518l-2.842,1.78c3.055,4.13,6.111,8.26,9.166,12.39l1.573-0.723l0.711-0.89l-0.087-2.756l1.156-1.607
		l3.38-1.687l1.601,0.532l1.069-0.976l2.49-0.538l4.27-3.559l0.716-2.397l1.422-0.982l-0.625-0.711l0.358-0.711l0.532-0.266
		l0.179,0.531l0.803-0.087l0.711-1.162l1.687-0.352l0.717-1.779h0.618l-0.173-0.89l0.618,0.532l0.179-0.179l-1.513-2.224
		l1.248-0.531l0.624-1.601l-1.779-1.959l-0.266-1.155l0.71-0.538l2.49-0.087l0.532-0.89h0.538l-0.445-1.335l0.352-0.179l0.272,0.538
		l0.976-0.624l-0.179-1.248l-0.445,0.179l-0.266-0.711l-0.532,0.352l0.173-0.797l-1.063-0.179l0.889-0.624l-0.092-2.045h0.71
		l-0.976-0.803l0.89-0.087l-1.421-0.976l0.352-0.717l-0.352-1.156h-1.428l-0.179-0.266l0.538-0.266l-1.069-0.358v-2.132l-0.89-0.624
		l-0.358-2.404l-2.756-4.535l-0.624-2.496l1.335-0.976l2.045-2.848l1.779-1.421l0.445-1.872l-0.352-1.6l1.779-1.959l0.265-1.242
		l-0.265-1.069l0.624-1.866l1.508-1.069l3.293-4.714l-1.514-2.224l-0.618-1.514l-0.093-0.537l0.358-0.352l-0.179-2.583l-2.224-2.935
		l0.532-0.624l0.092-1.334l0.624-0.532l2.225-0.711l1.866,0.445l1.422-1.248L184.354,0L180.975,0.179z"/>
</g>
<g id="Orleans">
	<path fill="#898989" stroke="#FFFFFF" stroke-width="0.75" d="M142.295,24.195l0.092,0.087l1.335-1.601l2.935-4.004l-5.073-3.652
		c0.988-4.638,1.976-9.277,2.964-13.915l-8.771,0.224l-8.812,0.803l-16.992,0.179L94.581,1.779h-9.343l-1.744-0.2l1.676,10.777
		l-0.352,0.093l0.624,12.012l-4.276,6.853l14.953,7.649l-5.876,11.388l-0.087,0.358l1.069,0.531l0.445,0.266l9.163,4.628
		l-0.71,1.156l10.584,5.338l4.986-9.608l5.784-11.474l5.338,2.577l-1.162-4.004l-1.335-4.628l9.615,6.587l6.759-9.256l-3.293-2.224
		L142.295,24.195z"/>
</g>
<g id="Bennington">
	<path fill="#898989" stroke="#FFFFFF" stroke-width="0.75" d="M46.113,225.635l-1.514-0.18h-1.421l-0.093,1.6h-0.531h-0.89
		l0.532-1.686l-0.797-0.093l-2.49-0.173l-6.945-0.093l-7.118-0.711c-2.897-0.152-5.793-0.303-8.69-0.455l-2.365,63.37l-0.717-0.179
		l-0.173,3.114l-0.358,0.89l1.421,7.742l0.803,0.092l32.322,1.071v-0.998l0.982-23.844l-8.273-0.445l0.086-2.577l0.266-2.669
		l-0.179-0.445l0.717-14.953l0.087-2.935l0.179-0.711v-0.531h1.421l10.856,0.797l0.179-4.09l0.445-6.759v-0.538l0.086-0.797h0.89
		l0.358-7.476l0.173,0.086l2.583,0.804v-4.715v-0.982h-0.087l-4.449-0.173l-4.807-0.271L46.113,225.635z"/>
</g>
<g id="Rutland">
	<path fill="#898989" stroke="#FFFFFF" stroke-width="0.75" d="M66.844,203.835l-3.201-0.975l-0.982-0.18l0.092-1.872l-1.959-0.445
		l1.779-12.629l1.335,0.531l5.518-12.544l-4.628-1.872l-6.673-2.669l1.334-3.379l-1.156-0.445l2.132-4.894l1.248-2.756l-0.358-0.179
		l-0.179-0.266l0.092-0.272h0.266v-0.352v-0.266l-0.711-0.273l-0.179-0.618l0.266-0.179h0.092l-0.092-0.18l-0.445-0.266v-0.445
		l-3.293-1.334l-0.531,1.242l-3.467-1.242v-2.491l-8.008,4.091l-3.386,1.693l-2.132,1.155l-1.069-5.339l-0.086-0.266l-2.941,0.266
		h-2.225l-6.846,0.266l0.087,0.445l-6.049,0.266l1.156,9.256l-2.669,0.352L6.701,166.02L5.783,167.9l-0.179,2.046l-1.514,1.427
		l-1.514,3.287l-0.89,3.293l-1.514,2.404l-0.087,0.889l0.89,2.669l-0.445,0.624l0.179,1.069L0,187.562l0.266,0.803l0.624,0.532
		l1.508,1.161l0.803,0.087l1.248-1.514l-0.093-2.045l0.803-0.89l0.352-2.583l0.717-0.352h5.87l0.086,1.6l0.89,1.156l0.093,0.889
		l-0.358,2.583l1.069,0.179l2.669,2.132l1.069,3.738l-0.445,1.6l-1.015,27.207c2.896,0.152,5.793,0.303,8.69,0.455l7.118,0.711
		l6.945,0.093l2.49,0.173l0.797,0.093l-0.532,1.686h0.89h0.531l0.093-1.6h1.421l1.514,0.18l2.49,0.087l4.807,0.271l0.173-4.987
		v-1.155l1.162-0.087l0.087-3.115l2.583-0.092v-0.352v-0.624v-0.093l3.287,1.779l2.051,1.069l3.114-8.274l1.335-5.338h-0.445
		L66.844,203.835z"/>
</g>
<g id="Windham">
	<polygon fill="#898989" stroke="#FFFFFF" stroke-width="0.75" points="70.761,236.312 57.946,231.863 55.363,231.059 
		55.19,230.974 54.832,238.45 53.942,238.45 53.856,239.247 53.856,239.785 53.41,246.544 53.231,250.634 42.375,249.838 
		40.954,249.838 40.954,250.369 40.775,251.08 40.688,254.015 39.971,268.967 40.15,269.412 39.885,272.082 39.799,274.658 
		48.072,275.104 47.09,298.948 47.09,299.946 92.53,301.452 91.109,299.141 90.398,296.558 89.063,295.489 87.37,296.293 
		87.284,293.889 85.325,292.023 84.349,290.064 83.014,282.859 83.459,280.987 84.793,279.831 85.239,279.028 85.949,276.539 
		85.77,274.135 85.325,272.448 85.504,271.466 86.746,270.755 91.374,268.889 91.819,267.82 91.733,266.399 93.333,265.33 
		93.691,264.619 93.512,263.816 91.998,262.302 92.177,260.17 91.553,258.477 91.733,257.946 93.777,255.808 94.223,254.739 
		93.957,252.07 94.668,250.025 92.801,246.379 93.154,243.352 93.777,242.017 93.333,240.237 94.402,238.816 94.136,237.036 
		94.754,235.078 94.69,234.798 83.483,234.533 	"/>
</g>
<g id="Orange_1_">
	<polygon id="Orange_2_" fill="#898989" stroke="#FFFFFF" stroke-width="0.75" points="106.797,109.878 100.834,107.116 
		96.026,104.892 93.802,117.083 89.712,115.39 82.859,112.548 82.415,113.79 80.104,112.9 77.786,118.949 76.452,122.508 
		75.655,122.242 71.113,132.295 65.688,130.071 60.974,138.969 61.418,139.148 60.974,140.038 61.418,140.217 60.974,141.107 
		62.036,141.551 61.591,142.355 62.129,142.528 61.771,143.331 69.247,145.914 74.048,147.78 81.704,150.715 92.202,155.343 
		103.856,158.989 116.381,164.145 116.467,162.648 118.426,159.534 118.067,157.402 118.605,155.443 118.16,152.329 119.76,151.353 
		119.494,149.215 120.557,148.684 121.985,146.367 124.475,144.408 124.561,141.386 125.809,140.676 126.341,139.872 
		126.434,138.896 127.057,138.538 126.434,138.007 125.006,138.007 125.099,136.134 124.74,134.979 125.544,132.396 
		125.896,132.223 126.878,132.755 126.434,131.333 126.785,130.975 127.502,131.061 128.213,129.461 128.034,128.219 
		129.369,127.329 128.837,126.44 130.079,125.371 130.524,123.943 132.037,123.591 131.148,122.522 132.124,121.991 
		132.304,120.829 131.593,120.477 130.883,121.008 130.258,119.853 130.437,118.432 131.858,117.097 131.327,115.046 
		131.414,113.538 131.231,113.179 119.519,108.717 	"/>
</g>
<g id="Windsor">
	<polygon fill="#898989" stroke="#FFFFFF" stroke-width="0.75" points="92.202,155.343 81.704,150.715 74.048,147.78 
		69.247,145.914 61.771,143.331 62.129,142.528 61.591,142.355 62.036,141.551 60.974,141.107 61.418,140.217 60.974,140.038 
		61.418,139.148 60.974,138.969 59.194,142.355 58.656,142.175 57.056,145.642 53.942,152.143 53.145,151.784 52.966,146.804 
		43.889,151.252 45.137,156.678 53.145,152.587 53.145,155.078 56.612,156.32 57.143,155.078 60.436,156.411 60.436,156.857 
		60.881,157.122 60.974,157.302 60.881,157.302 60.615,157.481 60.794,158.099 61.505,158.371 61.505,158.637 61.505,158.989 
		61.239,158.989 61.147,159.261 61.326,159.526 61.684,159.705 60.436,162.461 58.304,167.355 59.46,167.8 58.125,171.179 
		64.799,173.849 69.426,175.721 63.909,188.264 62.574,187.733 60.794,200.363 62.753,200.808 62.661,202.68 63.643,202.86 
		66.844,203.835 66.757,204.725 67.202,204.725 65.867,210.063 62.753,218.337 60.702,217.268 57.415,215.489 57.415,215.582 
		57.415,216.206 57.415,216.558 54.832,216.65 54.745,219.765 53.584,219.852 53.584,221.007 53.41,225.993 57.859,226.166 
		57.946,226.166 57.946,227.148 57.946,231.863 70.761,236.312 83.483,234.533 94.69,234.798 94.309,233.119 94.581,232.143 
		96.533,229.918 98.406,224.666 98.313,224.135 97.25,222.442 97.337,221.286 98.937,218.976 98.492,218.438 97.868,218.438 
		96.712,217.641 96.626,216.306 96.712,215.417 97.516,213.989 98.937,205.981 98.85,204.295 99.827,201.446 99.647,200.197 
		98.14,198.511 98.14,198.066 99.74,194.327 100.006,190.231 100.364,189.613 103.831,187.562 104.634,186.499 104.813,185.962 
		104.276,184.275 104.9,183.027 104.813,182.223 105.703,181.247 105.969,179.646 107.304,177.064 107.124,174.753 107.655,172.529 
		109.793,169.766 113.711,167.455 114.866,165.41 116.38,164.162 116.381,164.145 103.856,158.989 	"/>
</g>
<g id="Franklin">
	<polygon fill="#898989" stroke="#FFFFFF" stroke-width="0.75" points="33.18,0.436 33.354,0.433 33.354,3.016 33.793,2.929 
		33.706,3.726 32.73,4.171 32.551,4.709 32.192,4.616 31.482,5.419 29.702,6.043 29.523,5.506 28.991,5.506 28.726,5.153 
		28.905,4.437 29.523,4.264 28.905,3.905 28.367,4.264 28.188,3.819 28.46,2.836 29.702,1.415 28.367,0.97 28.188,1.323 
		26.767,1.86 26.409,4.616 25.877,4.974 26.236,4.085 25.964,3.547 25.253,3.281 24.629,3.726 24.456,4.709 23.474,5.506 
		22.762,5.506 21.96,6.309 20.539,10.492 21.787,12.445 22.405,12.272 23.208,11.203 24.629,10.937 26.588,12.092 26.681,12.624 
		26.143,16.541 24.901,19.39 23.919,26.953 24.098,27.126 24.543,26.681 25.964,27.218 25.791,28.287 25.074,28.374 24.456,29.443 
		24.277,30.24 24.629,31.575 25.519,31.402 25.791,29.622 26.681,29.264 27.836,27.305 28.632,27.571 29.078,28.108 28.547,30.067 
		26.409,33.268 25.074,34.337 23.566,36.116 22.527,39.743 32.853,45.278 38.285,48.305 48.869,50.709 48.604,50.443 48.869,50.264 
		48.604,49.726 48.869,49.726 48.604,49.108 48.869,48.571 49.048,48.571 49.493,49.016 50.117,49.016 50.921,48.929 51.365,48.126 
		51.897,47.86 55.808,40.477 60.881,42.967 61.864,38.518 62.129,37.097 62.926,37.183 63.105,35.848 63.371,35.404 63.55,33.265 
		64.619,33.265 64.799,31.931 65.33,31.931 65.509,30.689 77.966,28.644 81.166,31.313 85.442,24.461 84.818,12.449 85.17,12.356 
		83.495,1.579 77.496,0.89 58.811,0.537 46.354,0.803 37.098,0.358 24.229,0.612 24.229,0.612 	"/>
</g>
<g id="Addison">
	<polygon fill="#898989" stroke="#FFFFFF" stroke-width="0.75" points="21.645,164.42 20.489,155.164 26.539,154.898 
		26.452,154.453 33.298,154.187 35.523,154.187 38.464,153.922 38.55,154.187 39.619,159.526 41.751,158.371 45.137,156.678 
		43.889,151.252 52.966,146.804 53.145,151.784 53.942,152.143 57.056,145.642 58.656,142.175 59.194,142.355 60.974,138.969 
		65.688,130.071 57.767,126.87 55.19,125.894 52.966,125.004 51.093,124.288 49.228,124.467 48.962,122.953 48.783,121.532 
		48.158,117.442 47.627,112.455 47.627,112.368 45.848,112.634 44.42,101.599 44.068,95.197 41.578,94.394 39.706,94.042 
		39.971,96.439 35.078,96.977 35.078,96.532 29.028,97.687 18.172,99.288 16.224,99.458 16.224,99.458 16.09,99.914 15.114,100.179 
		15.114,101.069 15.114,101.601 14.045,101.866 13.507,101.421 13.6,102.225 13.155,102.49 12.71,101.866 12.352,102.49 
		11.728,102.49 12.086,103.473 11.82,103.825 11.375,103.738 11.017,104.004 11.11,104.807 9.948,104.894 8.793,105.518 
		6.661,108.274 6.389,109.967 7.551,109.608 8.348,110.498 7.013,114.144 6.568,114.323 6.926,115.126 6.661,116.282 5.147,118.24 
		4.609,121.089 2.83,122.331 2.212,123.221 2.385,124.648 1.495,126.78 1.674,128.652 2.385,128.825 3.547,129.715 4.164,131.049 
		3.367,134.522 3.812,136.301 3.102,137.105 3.367,140.305 3.899,141.461 3.275,142.264 3.367,142.796 4.257,143.154 4.436,143.599 
		4.257,145.91 5.147,145.91 5.944,146.447 5.858,148.226 6.747,150.451 5.858,152.317 6.482,154.628 5.944,156.056 5.678,156.234 
		5.233,155.519 4.523,157.032 6.568,160.412 7.279,160.412 7.903,160.856 8.082,162.55 8.793,163.619 8.527,164.953 7.759,165.912 
		6.701,166.02 7.39,164.609 7.563,164.255 7.563,164.255 6.701,166.02 18.976,164.772 	"/>
</g>
<g id="Chitteden">
	<polygon fill="#898989" stroke="#FFFFFF" stroke-width="0.75" points="49.852,96.884 51.007,94.307 55.098,85.941 56.525,86.565 
		57.235,86.744 57.946,86.744 59.991,82.648 56.698,80.961 59.991,74.64 56.791,73.577 60.084,67.435 57.501,66.014 59.547,62.01 
		57.68,61.386 50.117,50.974 48.869,50.709 38.285,48.305 32.853,45.278 22.527,39.743 22.527,39.743 21.96,41.72 21.787,46.973 
		22.318,49.104 21.515,50.439 19.47,50.977 19.204,51.953 18.401,52.132 18.759,52.929 20.007,53.201 20.452,56.043 20.18,57.378 
		21.342,57.557 22.053,58.447 23.739,57.378 24.456,57.65 24.363,58.984 23.474,61.116 21.515,61.827 21.07,61.295 21.249,60.492 
		20.273,59.961 20.094,58.447 19.025,58.805 19.204,60.226 17.159,61.03 16.09,60.85 15.287,60.14 14.934,60.764 14.397,60.85 
		12.889,59.695 12.71,61.03 13.865,61.382 15.2,62.364 15.731,62.988 15.645,63.606 16.09,63.785 16.448,65.386 15.824,66.9 
		16.003,68.148 16.448,67.165 18.049,67.524 18.401,68.413 18.314,69.482 19.291,69.303 20.273,70.372 20.718,71.614 20.625,73.042 
		19.735,75.266 20.804,75.89 21.163,77.49 20.452,80.425 20.18,80.784 19.383,80.87 19.118,79.894 18.049,78.646 17.869,77.843 
		18.401,76.953 18.401,76.156 17.869,75.532 17.066,78.646 17.424,78.825 17.424,79.622 15.379,81.673 15.645,83.008 15.466,83.54 
		16.003,84.071 16.003,85.498 16.356,85.585 16.356,86.122 15.824,86.295 16.003,87.457 14.842,87.988 14.669,88.347 14.934,89.768 
		13.6,92.969 13.155,93.327 13.686,94.217 13.062,94.748 13.155,95.286 14.397,94.748 14.934,96.262 12.976,98.307 13.952,98.752 
		14.397,97.417 15.114,97.51 16.535,98.4 16.224,99.458 18.172,99.288 29.028,97.687 35.078,96.532 35.078,96.977 39.971,96.439 
		39.706,94.042 41.578,94.394 44.068,95.197 44.42,101.599 45.848,112.634 51.273,97.601 	"/>
</g>
</svg>
