<svg id="Text" xmlns="http://www.w3.org/2000/svg" width="229.27" height="364.64" viewBox="0 0 229.27 364.64">
  <defs>
    <style>
      .county {
        fill: #888;
        stroke: #fff;
        stroke-width: 0.5px;
      }
    </style>
  </defs>
  <title>Alabama</title>
  
  <path id="lawrence" class="county" d="M87.66,53.37c0-.54.07-1.62.09-2.1a7.93,7.93,0,0,0-.15-1.49l.15-.61.31-24.07c-.4-.38-.8-.74-1-1a4,4,0,0,1-.85-1.71s-1.48-1.15-2.27-1.68a3,3,0,0,0-1.52-.51s-.44-.37-.78-.63a3.07,3.07,0,0,0-2.83-.15l-.29.13a10.14,10.14,0,0,1-1.23.45c-.35.1-1.58-.64-1.58-.64l-.83-.85s-.23-.37-.78-1.48c-.9-1.41-2.93-1-3.32-.87a17.48,17.48,0,0,1-2.56.15s0,0,0,0c-.09.55-.4,1.83-.4,1.83a4.79,4.79,0,0,1,.9.57c0,.09,0,.4-.08.49s-.54.81-.45,1a4.44,4.44,0,0,0,.31.51s-.63.46-.68.64-.24.62.37,1.82c-.37.22-.51.27-.61.44s-.1.21-.3.3-.49.12-.6.48a1.45,1.45,0,0,0,.1,1.27c0,.5.3,1.67-.15,2.21l-.63.2a5.54,5.54,0,0,0-1-.31c-.12,0-.28,0-.28.19s0,.56.1.66a.85.85,0,0,0-.32.51,3.92,3.92,0,0,0-1.18,1.08,5,5,0,0,1,0,.64,3.37,3.37,0,0,1-.65.78c.09.32,0,.41.17.56a.54.54,0,0,1,0,.74c-.25.25-.5.53-.5.53l.12.45-.36.1a2.92,2.92,0,0,1-.37.59c0,.34,0,.75,0,1.08,0,.63-.07,15.44-.08,18.25l2.43.09,23.72.57a6.55,6.55,0,0,0-.08-1C87.68,53.58,87.67,53.48,87.66,53.37Z" transform="translate(0.25 0.25)"/>
  
  <path id="winston" class="county" d="M87.77,54.64l-23.72-.57L61.62,54l-6.45-.24-.16,2v4.46l.11.38-.11,1L54.78,77l4.13.11,4.46.52,4.86-.12L81,77.72s.77.35.86.72c.06.06.23.06.23.06s.32-1.78,1.73-1.53a4.16,4.16,0,0,1,1.31.94A17.38,17.38,0,0,1,87.6,78s0-5.12,0-6c.17-.66,0-.78,0-.78s.08-15,.17-15.42A7.18,7.18,0,0,0,87.77,54.64Z" transform="translate(0.25 0.25)"/>
  
  <path id="marshall" class="county" d="M150,52.16l-.2-2.64V44.65l3.23-3.79a1.62,1.62,0,0,0-1,.48,1,1,0,0,1-.88.36c-.31,0-.21-1.34-.21-1.34l-.54-.36a5.36,5.36,0,0,0-.21-1.84s.14-.18.35-.4-.41-.3-.8-.27a2.64,2.64,0,0,0-.27-.64l-.35.33a2.12,2.12,0,0,1-.49-.64l-.82.69-.33.07.1-1.3-.38-.46.1-1.47,0-2.53H136.21a.7.7,0,0,0,.66.15,1.45,1.45,0,0,0,.59.27c.17,0,.37.1.24.24a.67.67,0,0,0-.15.64c.21.12.39.11.47.27a7.67,7.67,0,0,1-1.34.29.35.35,0,0,0-.4.26c-.19,0-.4.07-.34.24s0,.24.14.3.46,0,.63.09a.74.74,0,0,0,.69,0c.09,0,.18.07.08.31s-.33,1-.33,1,.21.56,0,.71-.75.73-.75.73l-.19.82h-.33l.23.35-.33.12v.26s-1.23-1.35-1.47-.93c-.18.17-.4.48-.66.54-.34-.26-1-.88-1.08-.3-.21-.11-.48-.15-.41,0s.17.28.17.35a1.78,1.78,0,0,0,.12.69,4.16,4.16,0,0,0-.44.6c-.43-.06-.81-.34-1.79,1.36a2.26,2.26,0,0,0-1.64-.42c-.44.3-1.06.8-1.26.62a.92.92,0,0,0-.62-.26,3.91,3.91,0,0,1-.62-.16h-.58a12.26,12.26,0,0,0-1.31-1,1.16,1.16,0,0,1-.8-1.35,11.37,11.37,0,0,0-.84-1.83c-.14-.07-.16-.3-.14-.63a.35.35,0,0,1-.25.16c0,.69-.08,1.65-.08,1.65s-.41,2.18-.48,2.8-1.14,8.45-1.14,8.45v5.25c3.93.08,6.6.13,6.6.15s0,1,0,1h1.08v1.1l.54.11-.33.73s.21-.1.26.35l.5,0v.79L131.51,62l5.38,6.58s.48.11.49.22a.87.87,0,0,0,.22.45,1.06,1.06,0,0,1,.36.52l6.26-5.89c1.55-1.47,6-.86,6-.86l0-1.11Z" transform="translate(0.25 0.25)"/>
  
  <path id="clay" class="county" d="M180.11,128.56v-.32h-.56l.22-13L177,115.1l-4.82,0v1.16H171v1.12h-6.58v-.53h1.11v-1.07l1.08-.12.09-.4-3.46,0,.14,3.3-1.19.1v4.35h-1.1v1.19H159s-.19,6.22-.16,6.64c-.4,0-1-.1-1-.1H150v7.81l-3.33-.11,0,6.87h0l10.33,0,0,1.05v0h2.28v-1.18L170,145l9.54-.22c0-1.33-.13-8.09-.13-8.09h.35v-1.07h-.34l.11-6h.54v-.83h-.22v-.24Z" transform="translate(0.25 0.25)"/>
  
  <path id="etowah" class="county" d="M173.43,77.69s-3.24-6.91-3.47-7.34c0-.32-.28-1.18-.39-1.64s.47-1.24.47-1.24a2.12,2.12,0,0,0-.26-.23c-1.05-.63-2.36,1.31-2.36,1.31l-.69,0,0-1.22-.22-5.53h0L156,61.86a9,9,0,0,1-1.34.12l-2.11-.12-2.31,0,0,1.11s-4.49-.61-6,.86L138,69.74h0a10.65,10.65,0,0,0-1.78,4,43.85,43.85,0,0,1,.12,4.55,3.13,3.13,0,0,0-.87,1.75l-.45.22-.11.44a2.8,2.8,0,0,0-1,1.22h2.79a.2.2,0,0,0,.06-.13c0-.08.27-1,.47-1.1s.29-.13.43-.33,1.19-2,1.19-2l.46.13a1.32,1.32,0,0,0,.33-.41l.29,0s.21,1.4,1.12,1.19a.55.55,0,0,0,.21.47,2,2,0,0,0,.61-.53c.1-.12.72-.75.95-.66a1.38,1.38,0,0,1,.55-.36c.29-.1,1.3-.26,1.33-.13s.09.29.19.32.21.18.21.18,0,.75.37.78a1.68,1.68,0,0,1,1.07,1,2.78,2.78,0,0,0-.11.54l.1.25a3.9,3.9,0,0,0,0,.77,2.59,2.59,0,0,1,.09,1,2,2,0,0,0,.72.32c.14,0,.41.16.42.35a.64.64,0,0,0,.16.41,1.32,1.32,0,0,1,.22.85c.37.14.61.2.75-.09,0-.1.39-.09.41,0s.23.25.31.11a.27.27,0,0,1,.34-.15c.16,0,.27.19.19.77s-.08.8.24.94.37.72.36.89a1,1,0,0,0,.2.52c.21-.25.32-.27.51-.2a.88.88,0,0,0,.73-.08c.23-.15.35-.26.5-.14a1.19,1.19,0,0,1,.76,1.32,1.26,1.26,0,0,0-.32.33l1,.17v-.9h1.68v-1l1.59.07v-1.2l.56.14V85.26H159V83.6h1.08v-.53h1.09v1.11h2.14V81.35h1.09v-.52h2.26v-.57s1.69.56,2.21.79c.27,0,3.38.53,4.39.75,0-.31,0-1.47.1-2.48S173.43,77.69,173.43,77.69Z" transform="translate(0.25 0.25)"/>
  
  <path id="talladega" class="county" d="M170.14,109.87a3.66,3.66,0,0,0,.06-1.32l-10.61.13s-1.9-.21-1.9-.15,0-1,0-1a15,15,0,0,0-1.73-.13,1.47,1.47,0,0,1,.11-.87,4.39,4.39,0,0,1-.45-2.07,1,1,0,0,0-.72-1.07c-.59-.25-.8-1.5-.8-1.5l-6.15-.38c0,.26-.1.47-.25.52a3.32,3.32,0,0,1-.65.18.9.9,0,0,1-.79-.68c-.09-.62-.05-1.11-.88-1.35-.29,0-1.37.48-1.33,1.09s.41.68.87.91a2.34,2.34,0,0,1,1.1.92c.22.42.44.77.44.77s.38,2.5-.58,2.64a4.78,4.78,0,0,0-1.18.06s-.3.53-.11.65.89.59.78.82-.52.28-.82.21-1-.19-1.18.09a1.78,1.78,0,0,0-.14.35l.42.89s-.23.89.38,1.19.93.68.93,1-.28.65-.75.87-1.32.65-1.43,1.37-.24,1.67-.45,1.71a3.53,3.53,0,0,0-.92.35.69.69,0,0,1-.58,0c-.11-.06-.31-.24-.3-.39s.13-1.25-.37-1.4a.85.85,0,0,0-1,.86c0,.77-.1,1.11-.28,1.24a1.34,1.34,0,0,0-.54.78c-.13.44-.4,1.54-.4,1.54a2.4,2.4,0,0,0-1.42,1.47c-.05.25-.81,1.21-1,1.63l-1.41.75a4.26,4.26,0,0,0-.4.55c-.2.32-.36.7-.15.84a7.8,7.8,0,0,1,1.34,1,4.12,4.12,0,0,1,.8,1.23c0,.2.07.48-.28.59s-.9.08-1.08.27-.25.36-.14.79.16.67.16.67l-.25.71s.34.43.34.62a.9.9,0,0,0,.2.45.64.64,0,0,1-.38.94l-.84.41s-.68.51-.89.7a1.11,1.11,0,0,1-1.35.14,2.74,2.74,0,0,0-1.27-.51,1.13,1.13,0,0,0,0,.29s.7,1.23.62,1.64-.53,1.28-.94,1.1-1-.34-1.28.29a3.21,3.21,0,0,0-.33.8s0,.79.11.94a.93.93,0,0,1,0,1.42,3.74,3.74,0,0,1-.7,0s-.35-.32-.47-.33a.73.73,0,0,0-.76.44c-.22.47-.62,1-.47,1.52.39.25,1.34.61,1.27,1.4s.25,1.13,1,1.42c.22.33.52,1.11.13,1.29s-.46.39-.8.4a.83.83,0,0,0-.66.73.4.4,0,0,1-.09.2l9.37,0,10.78-.28,0-6.87,3.33.11v-7.81h7.77s.62.08,1,.1c0-.42.16-6.64.16-6.64h2.16v-1.19h1.1v-4.35l1.19-.1-.14-3.3,3.46,0h0l3.32-3.36a11.07,11.07,0,0,1,0-1.22A2.54,2.54,0,0,1,170.14,109.87Z" transform="translate(0.25 0.25)"/>
  
  <path id="walker" class="county" d="M97.49,91.49l-.13-2.28H96.8a6.32,6.32,0,0,0,0-.89.11.11,0,0,0,0-.08c-.21-.37-1.8-.17-1.8-.17l-.26-.69c-.13-.34-.65.22-.65.22l0-1.72s-4.74-.2-5.4-.2c0-.16-.17-.23-.3-.4a.27.27,0,0,1,.23-.42c.25,0,.26-.09.48-.3.28-.56-.19-1.35-.82-1.93s-.38-1.06-.38-1.06l-.37-.44a3.4,3.4,0,0,1,.18-.56A1.77,1.77,0,0,0,86.31,80c-.23,0-.58-.06-.43-.26a2.07,2.07,0,0,0-.79-1.86A4.16,4.16,0,0,0,83.78,77c-1.41-.25-1.73,1.53-1.73,1.53s-.17,0-.23-.06c-.09-.37-.86-.72-.86-.72l-12.73-.17-4.86.12-4.46-.52L54.78,77v6.72l-.13,3.16,6.62.39.13,13.33L68,101v6.51l3.27.11v1.11h3.3v5.63l3.28.12c-.09-.09-.2-.2-.33-.31a.6.6,0,0,1,0-1c.11-.15.49-.06.49-.06a4.09,4.09,0,0,1,.14.52c0,.23.2.65.49.69s.68-.55.76-.88.22-.9.25-1,.79.12,1.16.29a2.93,2.93,0,0,0,.67-.46,2.26,2.26,0,0,1,.74-.59,1.19,1.19,0,0,0,.56-.42c.12-.16-.08-.31-.47-.49s-.69-1.25-.69-1.25l.53-.86,0-.75h1.12v-1.07h2.22l-.1-1.09h3.36v-2.23l2.15.07.1-2.31h1.1L92,98.06l.54,0V97l.54-.1V94.71h1.08V93.5l2.15.13.16-1.2,1.06.12V91.49Z" transform="translate(0.25 0.25)"/>
  
  <path id="calhoun" class="county" d="M173.33,79.32c-.06,1-.12,2.17-.1,2.48-1-.22-4.12-.79-4.39-.75-.52-.23-2.21-.79-2.21-.79v.57h-2.26v.52h-1.09v2.83h-2.14V83.07h-1.09v.53H159v1.66h-1.06v1.07l-.56-.14v1.2l-1.59-.07v1h-1.68v.9l-1-.17c-.11.16-.16.34,0,.47s.71.72.68,1-.1.5-.22.57-.4.27-.52,1.25c.11.26.14.35.07.54.21.22,1.21,1.49,1.1,2.27-.56,0-1.32.08-2.24,1.6-1.11.49-2.48,1.22-2.4,2.19-.08.18-.13.21-.35.19s-.84-.17-1,0a1.44,1.44,0,0,0-.24,1.08,7.05,7.05,0,0,1,.07,1.38l6.15.38s.21,1.25.8,1.5a1,1,0,0,1,.72,1.07,4.39,4.39,0,0,0,.45,2.07,1.47,1.47,0,0,0-.11.87,15,15,0,0,1,1.73.13s0,1,0,1,1.9.15,1.9.15l10.61-.13a3.66,3.66,0,0,1-.06,1.32,2.54,2.54,0,0,0-.11.78h3.39l.14-1.9s-.11-1.15-.14-1.42a4,4,0,0,1,1.18.13V107l-.1-.83.69.17h1.57v-1.21h2.16v-.77h.21v-.29h.35v-.55H180l-.1-2.88,0-6.59h1V93l1.09-.13V91.81H183V88.57l-.49-.12-2.77,0V86.32h2.16V85.13l4.43.09V81.16h0l.11-1.09Z" transform="translate(0.25 0.25)"/>
  
  <path id="monroe" class="county" d="M100.38,242.23l-19.74.17-.84-.2-17.45,0h0v1.18h-1.2l.12,8.82H58l0,10.92s-.55-.07-2.28,1.88l-1,.35s-.35.29-.3.45a4.28,4.28,0,0,0,2.1,2c1.22.42,1.77,1.17,1.61,1.86s-.42,3-1.69,3.27c-.42.68-.83,1.32-1.89,1.23-.32-.1-1.41-1.07-1.41-1.31a2.07,2.07,0,0,0-1.94.31c-.34.34-.93,1-1.1,1s-1.17.15-1.3.57a4.48,4.48,0,0,1-1.17,1.75,5.33,5.33,0,0,0,.08,1.08c0,.25,0,1.53,0,1.53a1.57,1.57,0,0,1-1.68.54c-.28-.11-.28-.52-.27-.69s0-.64,0-.64l.11-.39s-.32-.57-.45-.56-.53.24-.53.38.21,1.48-.71,1.7a.69.69,0,0,0-.45.47c0,.12,0,1.53,0,1.53a3,3,0,0,0,.54.5c.11,0,.64.22.65.51l.59-.13.42.13c0-.06.41-.28.56-.42s.67.06,1.07.19a1,1,0,0,1,.9,0c.09,0,.24.39.34.65a.8.8,0,0,0,.55.52c.27.07.74,1,.74,1.08a11.07,11.07,0,0,0,1.12,1.08,2,2,0,0,0,1.08.55,2,2,0,0,1,.83.45h1.41l.45.22a3.21,3.21,0,0,1,2.33.86l1.23.22a2.48,2.48,0,0,0,1.52-1,2.75,2.75,0,0,1,1.8-.63c.46,0,.84-.73.84-.73h4.07c0-.37.11-.94.11-.94a4.47,4.47,0,0,1,.87-.92,1.27,1.27,0,0,0,.53-.52,1.39,1.39,0,0,1,.63-.71,12.27,12.27,0,0,1,2.08-1.19,5.05,5.05,0,0,0,.72-1.55c.2-.5.38-1.06.38-1.06a2,2,0,0,0,1.12-.84c.27-.59.4-1.16.9-1.44a1.45,1.45,0,0,0,.63-.66,3.81,3.81,0,0,1,1.85-1.46c.58-.66,2.9-3.36,2.9-3.36l.67-.33.55,0a6.76,6.76,0,0,0,.79-1.07,14.28,14.28,0,0,1,2.09-3.54c-.05-.67-.07-1.11-.07-1.11l.83-3.2a4.93,4.93,0,0,0,1.13-1.79c.08-.65.32-3.15.4-3.22a14,14,0,0,1,1.93-.83h.74s1-1.18,1.06-1.3c.51,0,.84,0,1.09-.53a2.31,2.31,0,0,1,.55-3c.65.16,2.19.55,2.86.17a11.39,11.39,0,0,1,2.26-1.26,2.89,2.89,0,0,0,.6,0s1.39-1,1.54-1.09a9.48,9.48,0,0,0,1.05-.26,1.73,1.73,0,0,1,.88-.26Z" transform="translate(0.25 0.25)"/>
  
  <path id="clarke" class="county" d="M62.33,242.23l-3.69.14-4,0-.12-3.21-1-.44h-2l0-8.74-26-.18a1,1,0,0,0,.33.14c.06,0,0,.31-.07.44l-.44.47a3.07,3.07,0,0,0,.43,1.15c-.26.37-.59.55-.73.39s-.76-1-1.46-.58-1.35.85-1.12,1.4c.16.38.32.46.5.39a.54.54,0,0,1,.79.2c.26.42.53.87.61.95a.21.21,0,0,0,.32,0c.12-.13,1.08-.93,1.22-.86s1.12.83.49,1.17a2.38,2.38,0,0,0-.89-.18.3.3,0,0,1-.19.12.4.4,0,0,0-.23.17,3,3,0,0,1-2.12.84c-.51,0-1.16,0-1.21.42s-.1.76-.1.76a17.11,17.11,0,0,1-.85,2.26c-.18.14-1.1.56-1.09,1a1.24,1.24,0,0,1-.76,1.48,1.46,1.46,0,0,1-.55.76c.14.37.34,1,.34,1l.76,1.26a2.47,2.47,0,0,0,.37,1.85c.6.6,1.1,1.16,1.21,1.11a5.44,5.44,0,0,0,.58-.36s.65-.64.78-.64a.68.68,0,0,1,.85.34,8,8,0,0,1,.72,2.29c0,.46-.09,1.35-.09,1.35l.2,1s.13,0,.14.19a4.78,4.78,0,0,1,0,.48,7.38,7.38,0,0,1,.72,1.88.36.36,0,0,1-.35.31c-.18,0-.57.08-.49.49a11,11,0,0,1,.18,1.37c0,.26.42.65.5.82s.39.45,0,1.42a2.53,2.53,0,0,0,2.12,1.71c1.25.05,1.51.07,1.67.36s.4.69-.18.75a4.66,4.66,0,0,1-.9-.43l-.23.12a5.62,5.62,0,0,1,.62,1.13,3.63,3.63,0,0,1,1,.57c.26.16.48.1.69.29a3,3,0,0,0,1.2.55.58.58,0,0,1,.49.34.77.77,0,0,0,.66.41c.41,0,2.1.13,2.35,1,.17.55.12.93.62,1.18l1,.49v.53a7,7,0,0,1-.71,1.17.39.39,0,0,0-.08.57,3.11,3.11,0,0,1,.12,1.13c0,.14-.27.36-.68.4s-.51,0-.54.16-.14.48.81.66c.27.25.74.59.61.83a3.05,3.05,0,0,1-.79.78c-.16.08-.44.32-.14.78a1.12,1.12,0,0,1,.92-.29c.23.09.67.54.08.87a7.48,7.48,0,0,0-1.31-.06.67.67,0,0,0-.13.59,1.63,1.63,0,0,1-.84.79c0,.12,0,.21.07.22s.16.06.27,0,.85-.42,1-.23.24.34.33.35.16,0,.11-.17-.16-.69-.16-.69l.08-.22s.79-.26,1.21.06c.12.27.21.54.21.54l.32-.48s-.08-.52.11-.73.46.32.26.89-.39,1-.39,1a1.06,1.06,0,0,1-.2,1.52c-.11.5-.17.73-.28.8a1,1,0,0,0-.35,1,.48.48,0,0,0-.21.33c-.29.05-.38,0-.4-.07a.41.41,0,0,1,.07-.49c.2-.24.27-.43.12-.52s-.18-.22-.36-.22a.32.32,0,0,0-.3.37,4.45,4.45,0,0,1-.42,1.89l-.34,0s-1-.84-1.8-.48c-.27.13-.44,1.1.82,1.31,0,.3,0,.74-.06.84s-.15.19-.3.22-.33.24-.27.36.42.8.06.9a1.11,1.11,0,0,1-.5-.24.82.82,0,0,0-1.08.5c-.46.15-.53.37-.35.52s.8,0,.86-.19c.25.07.25.13.33.35a1.14,1.14,0,0,0,.83.65c.45.07.56.15.67.33a4.89,4.89,0,0,1,.49.76.47.47,0,0,0,.31.32c0,.22,0,.37-.47.5,0,.11-.19.5-.08.73-.33.33-.49.46-.65.46a3.77,3.77,0,0,0,.12,1c.29.1.86.29,1.17.42a1.84,1.84,0,0,0,.92.12c.23,0,.07-.4.07-.4l.44-.27a3.05,3.05,0,0,1,.11-.29c0-.05.32,0,.52.11,0-.3.53-.45.66-.54s.33.12.3.21.14.1.19.1.28.17.33.23.23,0,.23,0a7.06,7.06,0,0,1-.08-.73c-.08-.63.16-.61.29-.56s.77,1,.77,1l.43-.19c.15-.08.09-.26,0-.34a3.6,3.6,0,0,0-.67-.78c-.45-1.11.25-1.28.4-1.3s.71.74.71.74l.28.15s.17-.15.16-.25a2.51,2.51,0,0,0-.39-.63c-.14-.18-.06-.34.12-.53a.53.53,0,0,0,.12-.54c0-.16-.34-.23-.64-.2s-.26-.21-.22-.41.17-.17.32-.13a1.28,1.28,0,0,0,.43.17c.23.08.47-.06.67-.34a2.81,2.81,0,0,1,.35-1.11l.33-.15a.8.8,0,0,1,.15.16c.25,0,.88.47,1.12.58s.4,0,.74-.25a.73.73,0,0,0,.29-.67,2.68,2.68,0,0,0-.54-.5c.07-.39-.52-1.09-.86-1.32a2.72,2.72,0,0,1-.15-.9c.89-.43.92.64.92.64s.11.29.29.66a.38.38,0,0,1,.33.34H44l.42.18a1,1,0,0,0,.46.07.3.3,0,0,0,.09-.23c0-.29-.54-.49-.65-.51a3,3,0,0,1-.54-.5s0-1.41,0-1.53a.69.69,0,0,1,.45-.47c.92-.22.71-1.55.71-1.7s.41-.37.53-.38.45.56.45.56l-.11.39s0,.48,0,.64,0,.58.27.69a1.57,1.57,0,0,0,1.68-.54s0-1.28,0-1.53a5.33,5.33,0,0,1-.08-1.08,4.48,4.48,0,0,0,1.17-1.75c.13-.42,1.13-.55,1.3-.57s.76-.67,1.1-1a2.07,2.07,0,0,1,1.94-.31c0,.24,1.09,1.21,1.41,1.31,1.06.09,1.47-.55,1.89-1.23,1.27-.24,1.53-2.59,1.69-3.27s-.39-1.44-1.61-1.86a4.28,4.28,0,0,1-2.1-2c0-.16.3-.45.3-.45l1-.35c1.73-1.95,2.28-1.88,2.28-1.88l0-10.92h3.23l-.12-8.82h1.2Z" transform="translate(0.25 0.25)"/>
  
  <path id="conecuh" class="county" d="M115.75,275.64a3.46,3.46,0,0,0,.33-1s-.08-.09-.32-.31c.25-.92,0-1.18-.18-1.36a.5.5,0,0,1,0-.58c.09-.16-.08-.2-.16-.3a10.5,10.5,0,0,0-1.67,0l-.09-6.69h-8.83c.07-.22-.19-.83-.59-.8a1.69,1.69,0,0,1-1.36-1.34c.07-1.35-.35-1.79-.45-1.86s-.34-.26-.37-.45a12.79,12.79,0,0,0-1.65-3.64l.1-4.64.1-1.59-.06-2.91a1.73,1.73,0,0,0-.88.26,9.48,9.48,0,0,1-1.05.26c-.15,0-1.54,1.09-1.54,1.09a2.89,2.89,0,0,1-.6,0A11.39,11.39,0,0,0,94.17,251c-.67.38-2.21,0-2.86-.17a2.31,2.31,0,0,0-.55,3c-.25.57-.58.52-1.09.53,0,.12-1.06,1.3-1.06,1.3h-.74a14,14,0,0,0-1.93.83c-.08.07-.32,2.57-.4,3.22a4.93,4.93,0,0,1-1.13,1.79l-.83,3.2s0,.44.07,1.11a14.28,14.28,0,0,0-2.09,3.54,6.76,6.76,0,0,1-.79,1.07l-.55,0-.67.33s-2.32,2.7-2.9,3.36a3.81,3.81,0,0,0-1.85,1.46,1.45,1.45,0,0,1-.63.66c-.5.28-.63.85-.9,1.44a2,2,0,0,1-1.12.84s-.18.56-.38,1.06a5.05,5.05,0,0,1-.72,1.55A12.27,12.27,0,0,0,69,282.33a1.39,1.39,0,0,0-.63.71,1.27,1.27,0,0,1-.53.52,4.47,4.47,0,0,0-.87.92s-.08.57-.11.94l42.9,0a1.69,1.69,0,0,1-.54.74,4.48,4.48,0,0,0-.08.51c0,.24.17.45.3.61a.76.76,0,0,0,.13.82c.23.31-.14.8-.28.9s-.06.21-.06.21a.7.7,0,0,1,.31.22.56.56,0,0,0-.32.62,2.69,2.69,0,0,0,.53.22c-.08.06-.09.49-.08.56s-.07.22-.1.39a.42.42,0,0,0,.09.29,8.32,8.32,0,0,1,.43-.91c.16-.27.26-.27.69-.13.44-.32.6.24.6.24h.23l-.1.33.21.11L112,291s.31,0,.76,0c-.34-.27-.23-.48-.23-.48l.77.08a.53.53,0,0,1,.18-.28.41.41,0,0,1,.34.29V279.42l-.22-.32.19-.24h.56c.1-.24.23-.44.46-.45s.34-.44.3-.75c.53-.1.71-.24.78-.58A1.91,1.91,0,0,1,115.75,275.64Z" transform="translate(0.25 0.25)"/>
  
  <path id="crenshaw" class="county" d="M149.38,258.18l-2.14.12s0-.36,0-1c.43,0,.61-.33.66-.77.29-.09.42-.52.51-.95-.21-.35,0-.58.26-.85.54.05.52-.38.52-.38l.09-7.36-.07-1.94-3.39.09s0-1.18,0-1.49a.71.71,0,0,0,.44-.88c.17-.09.33-.49.33-.49s.36-.52.41-.62,0-.25-.29-.55a.52.52,0,0,1,0-.68,4.83,4.83,0,0,0,.32-.47c-.55-.42,0-1.26.09-1.28a8,8,0,0,0,0-1l.34-.34c.11-.11.19-.3-.05-.54-.37-.4-.28-1.3-.21-1.82a1.73,1.73,0,0,0-.3-1.14,3.87,3.87,0,0,1-.29-1.16,1.28,1.28,0,0,0-.26-.62.46.46,0,0,1-.11-.32l-7.09.11-.1-6.53-6.58.07V226h.64l.11.65h-.75l.12,5.5-.55-.12-2.14,0c0,1.42.09,8.88.11,8.89s.19,0,.2,0-.05.29,0,.3.3,0,.27.08-.11.46-.15.46-.2,0-.16,0,.17.3.08.3-.3,0-.3.06v4.25h.33v1.07l-.23.16,0,3.11-.23,2.44v2.26h-3.23l0,7.7.1,2.25,6.35-.24.07,5.75a3.59,3.59,0,0,0,1.42-1.52l.42-.2s.3-1.44,1.21-.88a1.63,1.63,0,0,1,.84-.42,2.58,2.58,0,0,0,.63-1.07c.25-.07.47-.11.47-.11l.21-.53,1.18-1.11h1.3l.1,5.5h1.2l-.11,1.08h4.4l-.13-1.6,0-5.18h2.36v-.56l.86-.12Z" transform="translate(0.25 0.25)"/>
  
  <path id="butler" class="county" d="M130.38,241.78s.13-.38.15-.46-.18-.06-.27-.08,0-.24,0-.3-.18,0-.2,0-.1-7.47-.11-8.89l-15.77.26-10.52,0h-3.38v2.26l.15.25v7.41h0l.12,5.93.06,2.91-.1,1.59-.1,4.64a12.79,12.79,0,0,1,1.65,3.64c0,.19.28.38.37.45s.52.51.45,1.86a1.69,1.69,0,0,0,1.36,1.34c.4,0,.66.58.59.8h8.83l13.16,0h0l-.1-2.25,0-7.7h3.23v-2.26l.23-2.44,0-3.11.23-.16v-1.07H130v-4.25c0-.11.2-.06.3-.06s-.05-.24-.08-.3S130.35,241.78,130.38,241.78Z" transform="translate(0.25 0.25)"/>
  
  <path id="tuscaloosa" class="county" d="M89.82,132.49v-.26h-.89l.15-.87H86.46v-1.19H84.31V129h-1l-.12-1.66H82l0-1.14H81v-.55l-1.1-.08,0-2.15H78.8l.16-1.21h-.32l-.17-.56-.75,0v-.53l-1.06,0,0-1.19-1.92-.08v-1.1h-1.3v-1H73a2.1,2.1,0,0,0,.12-.33,4.83,4.83,0,0,0,.38-.74,1.57,1.57,0,0,1,.38-.63c.15-.15.5-.06.9.3a1.23,1.23,0,0,1,.73-.13l.42.76a2.15,2.15,0,0,0,.4,0,.4.4,0,0,0,.38-.35,4.22,4.22,0,0,0-.23-.74c-.16-.39,0-.42.06-.55s.64,0,.76.11a.73.73,0,0,0,.52.18c.24,0,.37-.66.37-.66a1.68,1.68,0,0,0-.33-.46l-3.28-.12v-5.63h-3.3v-1.11L68,107.5l-8.76-.29-4.32-.33-.11,2.25H52.63v4.53h-4.9l-6-.43h0l-.19,21a57.87,57.87,0,0,1,.12,7,1.49,1.49,0,0,0,0,.21c-.1,1-.1,1.44-.1,1.44l0,3.18.43,0L41.87,152l7.79,0s.07.19-.37.44a.57.57,0,0,0,.06.4l11.82.25,6.63,0h0l6.57-.09v-1.62l.42-5,2-2.93,5.16.21v-4.38l2.47-2.52v-.41l.64-.79,1.72.14,0,1.05,1.2,0,1.7-1.94h.66v-2.21Z" transform="translate(0.25 0.25)"/>
  
  <path id="greene" class="county" d="M49.63,153.19c-.12-.25-.1-.28-.22-.34l-.06-.07a.57.57,0,0,1-.06-.4c.44-.25.37-.44.37-.44l-7.79,0L42,146.1l-.43,0,0-3.18s0-.48.1-1.44a2.28,2.28,0,0,1-.87.56l-1.73.61-1.49.77-.25.49a.81.81,0,0,0-.76-.05,10.67,10.67,0,0,0-2,1.28c-.09.22-.36,1.13-.55,1.2s-.47.11-.53.33a1,1,0,0,1-.51.53c-.14,0-.41-.16-.63,0a2,2,0,0,1-1.58.41A1.72,1.72,0,0,1,30,148c-.35.11-.77.2-.54.82l-.23.08-.41-.34V149l.31.55-.07.33h-.34l-.42.36L28,150l-.43-.1s-.26-1-.95-.76a.75.75,0,0,1-.37.55,1.62,1.62,0,0,1-.16.54l-.45-.17-.3.27-.39-.27-.47.26-.54-.56-1.09.33-.56-.22-.3.43.2.44-.39.51a1.5,1.5,0,0,0-1.32,1.54c0,.19,0,.34,0,.48a6,6,0,0,1,0,.69l.23.52-.13.47a2.24,2.24,0,0,0,.49.45c.16.05.46.34.07.67a5.68,5.68,0,0,1-.66.26,1.19,1.19,0,0,1-.44-.4c-.13-.25-.59-.14-.59.22a1,1,0,0,0,.5.84c.27.19.55.57.52.68s-.46.68-.66.59-.85-.44-1-.39c-.17.28-.28.49-.4.65s-.26.63.17.81,1,.41,1,1a9.58,9.58,0,0,0,.07,1.59c.07.28.1.65.43.77a.68.68,0,0,1,.52.56c0,.21.32.23.43.26s.33,0,.33.28a1.14,1.14,0,0,1-.43,1.11c-.33.31-.49.49-.56.42s-.73-.29-.76,0,.17.62,1.29.53c.26.25.52.53.8.29s.72-.83,1-.66a3.38,3.38,0,0,1,.53.39l.35,1.27s.81.54.83.86.18.59.29.55a8.43,8.43,0,0,1,1.15-.71c.41-.12.8-.19,1,.23a4.53,4.53,0,0,1,.24.93s-.5,1-.91,1.15c-.21,0-.27.07-.47-.15s-.59-.54-.72-.48-1,.35-.79,1a5.38,5.38,0,0,1,.18.51,5.49,5.49,0,0,0,.24,1.67c.47.31,1.39.94,1.39,1.14s0,1.08-1.34,1.58c-.27,0-.81,0-.81.2a2.89,2.89,0,0,0,0,.5s1.57,1.22,2.49.76a5.33,5.33,0,0,0,1.44-1c.43.14.89.52.77.85-.16.16-.34.21-.46.4a1.22,1.22,0,0,1-.49.4.4.4,0,0,0-.15.59,1.22,1.22,0,0,1,.22,1.17c-.12.57-.15.84-.56.91a3.83,3.83,0,0,1-.79.1c-.18,0-.45.13-.45.57s-.07.88.46,1.26a1.67,1.67,0,0,1,.71,1.1c0,.24.3.86.77.6s1.21-.86,1.56-.58a1.17,1.17,0,0,1,.27.2l.57-.12,2.34-.88a10.13,10.13,0,0,1,2-1.2c.29,0,.26,0,.46-.1s.68-.32.68-.32a4.07,4.07,0,0,1,.65.37,1.86,1.86,0,0,1,.56.56.63.63,0,0,0,.77.44,3.85,3.85,0,0,0,1.14-.5,5,5,0,0,0,.65.08H40a.76.76,0,0,1,.31.55,3,3,0,0,1,.75.74c0,.09,0,.14-.13.2l-.71.35-.21.46-.32,0-.11-.35s.26-.81-.1-1a3.4,3.4,0,0,1-.56,0l-.34-.13s-.44.29-.51.45c-.49.15-.68.15-.66.82a7.73,7.73,0,0,1,1.5,1.91,1.9,1.9,0,0,1,0,1.27c-.14.23,0,.68.21.93s.29.43.48.47a2.63,2.63,0,0,0,.45.11.34.34,0,0,1,.16,0,1.16,1.16,0,0,0,.13-.56,1.4,1.4,0,0,1,.64-.69c.08.24.49.28.9.37.31-.07.59.52.59.52l-.3.53a4.75,4.75,0,0,0,0,.49c0,.25.07.38.25.4s.35-.14.43-.35c0,0,0,0,0,0a1.86,1.86,0,0,1,.59-.78,2.13,2.13,0,0,0,.5-.8s-.18-.82-.22-1.14.16-.37.31-.35c0,.33.46.32.46.32l0-1s-.05-.43-.09-.71c.18-.46.38-.24.57-.14.21-.1.57.25.57.25s0,.26,0,.4,0,.2,0,.3a.25.25,0,0,1,0,.18c0,.08.09.13.25.12s.3-.29.39-.59c.24-.67,1.28-.81,1.5-.86s0-.33-.07-.46-.42-.92-.57-1.2-.31-.42-.47-.44a6.77,6.77,0,0,0-1.33.55,2,2,0,0,1-.57,0s-.68-.41-1.07-.7a3.66,3.66,0,0,1-.63-1.36c.08-.64.84-.29,1.14-.22a3.52,3.52,0,0,0,1.25-.2c.26-.09,1.13.5,1.13.5l.25-.11s.36-.7.61-1.22c-.11-.78-.53-.81-.53-.81s-.36.36-.75.7-1.39,0-1.39,0-.36-.5-.53-.78a1.08,1.08,0,0,1,.15-.57,1.87,1.87,0,0,0,.29-.48c.25-.43-.21-.75-.51-1s0-1.39,0-1.48a.71.71,0,0,0,0-.44,1.46,1.46,0,0,1-.55-.06c-.13,0-.39.22-.53.47s-.88.24-.88.24a4.19,4.19,0,0,1-.43-.77c.16-.94.8-1.35,1.28-1.26s.43-.31.54-.79c.17-.67-.88-1.53-1.09-1.75a.87.87,0,0,0-.56-.28c-.16,0-.13.33-.13.51s0,.12-.19.22-.36.06-.82-.08a.93.93,0,0,1-1.47-.2l.34-.55c.16-.25.34-.22.42-.17s.1.19.57.05a6,6,0,0,1,1.1-.94s0-.1.13-.36a2.37,2.37,0,0,0,.89-.51,2.81,2.81,0,0,0-.12-.45c-.05-.08,0-.08.07-.31a1.1,1.1,0,0,0,.48-.13c.09-.16,0-.28-.24-.43a1.22,1.22,0,0,0-.21-1l.1-.43s-.33-.35-.52-.51a.46.46,0,0,1-.45-.39c0-.18.1-.26.22-.27a3.64,3.64,0,0,0,.56-.05c.15,0,.08-.14,0-.28-1.09-.31-.86-.89-.86-.89l.36-.08s.2.1.17.12a1.69,1.69,0,0,0,.34-.17c.07-.05,0-.21-.1-.51a1.83,1.83,0,0,0,.07-.74,1.43,1.43,0,0,1,.54.25.64.64,0,0,0,.26,0c.09-.32-.54-.63-.54-.63l0-.23.25-.09.22.22a1.48,1.48,0,0,0,.25.12c.07,0,.06-.23.06-.23l-.09-.33s0-.08.11-.2.3.05.39.16.35,0,.46-.15.34.22.34.22l.33,0a1.71,1.71,0,0,1,.21-.43c.1-.14.28-.13.29,0s.2.18.36.22.11-.4.11-.4.21-.15.3-.23-.14-.25-.26-.29-.26-.44-.33-.57a2.34,2.34,0,0,0-.37-.41,2.22,2.22,0,0,1,0-.34,1.11,1.11,0,0,1,.64.32c.08.08.15,0,.14-.2a.68.68,0,0,1,.15-.38.15.15,0,0,1,.26,0,.45.45,0,0,0,.47.25.53.53,0,0,0-.26-.57c.38-.24.55,0,.55,0l.54-.42.45-.8-.23-.21-.33.12c-.24.09-.53.16-.63,0s.25-.37.42-.35a.87.87,0,0,1,.43-.27s-.67-.38-.87-.53a.91.91,0,0,0-.07-.57,1,1,0,0,1-.05-.34,1.27,1.27,0,0,1,.63,0,.61.61,0,0,0,.67.17c.16-.05.13-.28.13-.28l.43-.47h.84l.32-.43Z" transform="translate(0.25 0.25)"/>
  
  <path id="fayette" class="county" d="M61.4,100.64l-.13-13.33-6.62-.39.13-3.16V83.7l-6.23,0-7.79-.46-5.68-.11v.08L35,86.57s.29,19.24.23,19.9,0,5.55-.1,6.77h6.67l6,.43h4.9v-4.53h2.15l.11-2.25,4.32.33,8.76.29V101Z" transform="translate(0.25 0.25)"/>
  
  <path id="blount" class="county" d="M138,69.74a1.06,1.06,0,0,0-.36-.52.87.87,0,0,1-.22-.45c0-.11-.49-.22-.49-.22L131.51,62l-2.37-3.65v-.79l-.5,0h-.08s-1.83-.11-2.12-.11c-.19.8-.72.88-.89.89,0-.31-.31-.35-.64-.37s-.52.26-.73.58a1.19,1.19,0,0,0,0,1c.1.23-.26.54-.5.67a.79.79,0,0,0-.37-.13c-.1,0-.38.65-.38.65l-.25.1.23.25-.33.41h-.31a.86.86,0,0,0,.21.54l-.41.33a2.07,2.07,0,0,0,0,.28c0,.14.66.38.66.38v.21c-.82.26-1,.56-1.08.95a1.68,1.68,0,0,0-.63.39c-.09.07-.12.67-.12.67l-.43.36a3,3,0,0,0,0,.32c-.54,0-.44.33-.35.47s-.11.44-.32.56a4.7,4.7,0,0,0-.55.45l0,.53a.63.63,0,0,0,.16,0c.12,0,0,.1,0,.21a2.24,2.24,0,0,1-.52.4c-.19.12-.26.06-.34-.08-.3-.56-.73-.4-.73-.4l-.8.56v.52a3.41,3.41,0,0,1-.45-.2c-.23-.11-.51.31-.51.31l0,.86s-.22.27-.61.66a.49.49,0,0,0-.67,0,2.51,2.51,0,0,1-.61.31c-.1,0-.13-.16-.13-.16l.11-.62-.24-.12s-.2.41-.27.51a.64.64,0,0,1-.35.22.38.38,0,0,0-.23.17l.21.31.46.45.54,1,.09.31a2.44,2.44,0,0,1-.36.07c-.33-.27-.38-.48-.38-.58s-.12-.08-.2-.14-.41.49-.51.63a.52.52,0,0,0-.08.46c0,.16.13.25.28.42a1.16,1.16,0,0,1,.16.54,1.75,1.75,0,0,1-.31.34c-.2.16-.67,0-1-.1-.07,0-.15.47-.13.6a.89.89,0,0,1-.09.42c-.07.17-.29.24-.48.31s-.35.36-.51.61c.05.52-.11.61-.28.66a2.7,2.7,0,0,0-.37.15h-.32c-.54,0-.43.55-.43.67a.5.5,0,0,1-.08.36,1.61,1.61,0,0,0,0,.61l-.32.3h-.39a.34.34,0,0,0-.2.08l.27.2c.13.09.07.12,0,.23s-.21.08-.45,0-.61.09-.73.24-.11.16.07.23.12.12.1.24-.51.44-.51.44l-.45-.22-.41.11s-.39-.24-.49-.28c-.34,0-.33.2-.28.51a1,1,0,0,1,.31.62c-.49.11-.78-.35-.88-.55s-.32-.08-.54,0a3.92,3.92,0,0,0-1.06.89c0,.38-.09.58-.18.53a1.4,1.4,0,0,0-1.42-.24,5,5,0,0,1,0,.79c-.06.34-.16.46-.49.47a1.68,1.68,0,0,0-.74.24c-.13.08-.46-.07-.69-.3-.11.12-.54.75-.54.75s0,.25-.13.84c.6.31.26,1.28.12,1.64a.6.6,0,0,1-.4.41,11.87,11.87,0,0,1-1.75,0c-.46,0-.31.39-.25.62a.49.49,0,0,1,0,.23.11.11,0,0,1,0,.08,6.32,6.32,0,0,1,0,.89h.56l.13,2.28h1.06l3.23-2.19,7.89.22,6.88,5s-.21.58.24.61l4.15.15V92.43l3.55-.08a8.06,8.06,0,0,1,.66-.67,4.89,4.89,0,0,1,1-.29,6.65,6.65,0,0,0,1.08.09c.12,0,1.21-.66,1.3-.65s1.7,0,1.82,0,1.27-1,1.27-1a21.38,21.38,0,0,1,2.51-2.68,2.72,2.72,0,0,0,1.33-1.39c.14-.54.19-.62.06-.82s-.33-.55-.33-.55l.1-.61.66-.26a1,1,0,0,1,.43-.38,1.37,1.37,0,0,0,.55-.41c.14-.16.27-.38,0-.49s-.46-.15-.37-.22l.07,0h-2.79a2.8,2.8,0,0,1,1-1.22l.11-.44.45-.22a3.13,3.13,0,0,1,.87-1.75,43.85,43.85,0,0,0-.12-4.55,10.65,10.65,0,0,1,1.78-4Z" transform="translate(0.25 0.25)"/>
  
  <path id="jefferson" class="county" d="M124.8,111.32h-1.6v-.67h-.53v-4.46h.56v-1h.52v-1.71l.52.1,0-5-.58.08,0-1-.57-.13,0-1-.13-1.11-2.1,0h0l-4.15-.15c-.45,0-.24-.61-.24-.61l-6.88-5-7.89-.22L98.55,91.5H97.49v1.06l-1.06-.12-.16,1.2-2.15-.13v1.21H93v2.17l-.54.1v1l-.54,0,.13,3.17H91l-.1,2.31-2.15-.07v2.23H85.39l.1,1.09H83.27v1.07H82.15l0,.75-.53.86s.3,1.08.69,1.25.59.33.47.49a1.19,1.19,0,0,1-.56.42,2.26,2.26,0,0,0-.74.59,2.93,2.93,0,0,1-.67.46c-.37-.17-1.13-.43-1.16-.29s-.16.72-.25,1-.47.92-.76.88-.45-.46-.49-.69a4.09,4.09,0,0,0-.14-.52s-.38-.09-.49.06a.6.6,0,0,0,0,1c.13.11.24.22.33.31a1.68,1.68,0,0,1,.33.46s-.13.64-.37.66a.73.73,0,0,1-.52-.18c-.12-.08-.71-.24-.76-.11s-.22.16-.06.55a4.22,4.22,0,0,1,.23.74.4.4,0,0,1-.38.35,2.15,2.15,0,0,1-.4,0l-.42-.76a1.23,1.23,0,0,0-.73.13c-.4-.36-.75-.45-.9-.3a1.57,1.57,0,0,0-.38.63,4.83,4.83,0,0,1-.38.74,2.1,2.1,0,0,1-.12.33h.5v1h1.3v1.1l1.92.08,0,1.19,1.06,0v.53l.75,0,.17.56H79l-.16,1.21h1.13l0,2.15,1.1.08v.55h1.07l0,1.14h1.11l.12,1.66h1v1.17h2.15v1.19h2.62l-.15.87h.89v.26h.55v2.21l2.46,0h0l2.33.13.43-.11a1.77,1.77,0,0,0,0-.33c0-.25,0-.23.19-.15,0-.36.15-.32.35-.29,0-.32.32-.31.32-.31v-.54h1.3v-.55h.74l.1-.23h.58V131c.14,0,.21-.14.21-.29s.28,0,.29-.17,0-.07.36-.08.18-.38.18-.38h.56v-.5c.61-.06.53-.9.53-.9h.55v-.44h3.32V126l1.08.1,0-.22.53-.15v-.18h1.62V123.8l1.09.12v-.56a.33.33,0,0,0,.3-.19c.1-.18.23-.11.23-.11v-1.39l2.15.09v-1.08h1.18V120c.49-.12.46-.9.46-.9H115v-1s3.11-.12,3.14-.1,1.17,0,1.17,0v-.56h.59v-.57h.6v-1a3.55,3.55,0,0,0,.55-.14.71.71,0,0,1,.53-.4v-.66l.54,0V114l1.09.12,0-.69,1.64.11.1-1.67v-.05Z" transform="translate(0.25 0.25)"/>
  
  <path id="bib" class="county" d="M102,149.7h-1.06v-.58h-1c-.12,0-.06-.18-.06-.29s-.17,0-.29,0,0-.33,0-.33l-.86.1v-1.06H97.59V145.9H96.4l.1-4.41-.33-.11v-.25l-2,0v-.33H93l-.15-2h.4v-1.41h-.37v-2.8l-2.46,0h-.66L88,136.65l-1.2,0,0-1.05-1.72-.14-.64.79v.41L82,139.15v4.38l-5.16-.21-2,2.93-.42,5v1.62l-6.57.09h0l.13,2.57L67.79,163l6.52,0v3.37c.53,0,5.37-.11,5.37-.11l.67-.25,12.91-.11h0l2.31,0L97,165.7l5.36.24V149.7Z" transform="translate(0.25 0.25)"/>
  
  <path id="cullman" class="county" d="M128.39,57.2l.33-.73-.54-.11v-1.1H127.1s0-.88,0-1-2.67-.07-6.6-.15c-11-.2-31.87-.54-31.87-.54l-1-.24c0,.11,0,.21,0,.26a6.55,6.55,0,0,1,.08,1,7.18,7.18,0,0,1,0,1.24c-.09.46-.17,15.42-.17,15.42s.2.12,0,.78c0,.84,0,6,0,6a17.38,17.38,0,0,0-2.51-.13,2.07,2.07,0,0,1,.79,1.86c-.15.2.2.29.43.26a1.77,1.77,0,0,1,1.42.54,3.4,3.4,0,0,0-.18.56l.37.44s-.26.49.38,1.06,1.1,1.37.82,1.93c-.22.21-.23.29-.48.3a.27.27,0,0,0-.23.42c.13.17.33.24.3.4.66,0,5.4.2,5.4.2l0,1.72s.52-.56.65-.22l.26.69s1.59-.2,1.8.17a.49.49,0,0,0,0-.23c-.06-.23-.21-.64.25-.62a11.87,11.87,0,0,0,1.75,0,.6.6,0,0,0,.4-.41c.14-.36.48-1.33-.12-1.64.11-.59.13-.84.13-.84s.43-.63.54-.75c.23.23.56.38.69.3a1.68,1.68,0,0,1,.74-.24c.33,0,.43-.13.49-.47a5,5,0,0,0,0-.79,1.4,1.4,0,0,1,1.42.24c.09,0,.19-.15.18-.53a3.92,3.92,0,0,1,1.06-.89c.22-.1.44-.22.54,0s.39.66.88.55a1,1,0,0,0-.31-.62c0-.31-.06-.54.28-.51.1,0,.49.28.49.28l.41-.11.45.22s.49-.33.51-.44.08-.18-.1-.24-.2-.07-.07-.23.49-.36.73-.24.41.14.45,0,.11-.14,0-.23l-.27-.2a.34.34,0,0,1,.2-.08h.39l.32-.3a1.61,1.61,0,0,1,0-.61.5.5,0,0,0,.08-.36c0-.12-.11-.67.43-.67h.32a2.7,2.7,0,0,1,.37-.15c.17,0,.33-.14.28-.66.16-.25.32-.55.51-.61s.41-.14.48-.31a.89.89,0,0,0,.09-.42c0-.13.06-.6.13-.6.29.15.76.26,1,.1a1.75,1.75,0,0,0,.31-.34A1.16,1.16,0,0,0,113,74c-.15-.17-.25-.26-.28-.42a.52.52,0,0,1,.08-.46c.1-.14.43-.7.51-.63s.2,0,.2.14,0,.31.38.58a2.44,2.44,0,0,0,.36-.07l-.09-.31-.54-1-.46-.45-.21-.31a.38.38,0,0,1,.23-.17.64.64,0,0,0,.35-.22c.07-.1.27-.51.27-.51l.24.12L114,71s0,.18.13.16a2.51,2.51,0,0,0,.61-.31.49.49,0,0,1,.67,0c.39-.39.61-.66.61-.66l0-.86s.28-.42.51-.31a3.41,3.41,0,0,0,.45.2v-.52l.8-.56s.43-.16.73.4c.08.14.15.2.34.08a2.24,2.24,0,0,0,.52-.4c.05-.11.16-.23,0-.21a.63.63,0,0,1-.16,0l0-.53a4.7,4.7,0,0,1,.55-.45c.21-.12.41-.43.32-.56s-.19-.43.35-.47a3,3,0,0,1,0-.32l.43-.36s0-.6.12-.67a1.68,1.68,0,0,1,.63-.39c.1-.39.26-.69,1.08-.95v-.21s-.66-.24-.66-.38a2.07,2.07,0,0,1,0-.28l.41-.33a.86.86,0,0,1-.21-.54h.31l.33-.41-.23-.25.25-.1s.28-.67.38-.65a.79.79,0,0,1,.37.13c.24-.13.6-.44.5-.67a1.19,1.19,0,0,1,0-1c.21-.32.41-.59.73-.58s.65.06.64.37c.17,0,.7-.09.89-.89.29,0,2.12.11,2.12.11h.08C128.6,57.1,128.39,57.2,128.39,57.2Z" transform="translate(0.25 0.25)"/>
  
  <path id="st_clair" data-name="st clair" class="county" d="M153.06,92.87c.07-.19,0-.28-.07-.54.12-1,.39-1.18.52-1.25s.19-.33.22-.57-.46-.73-.68-1-.08-.31,0-.47a1.26,1.26,0,0,1,.32-.33,1.19,1.19,0,0,0-.76-1.32c-.15-.12-.27,0-.5.14a.88.88,0,0,1-.73.08c-.19-.07-.3-.05-.51.2a1,1,0,0,1-.2-.52c0-.17,0-.74-.36-.89s-.32-.35-.24-.94,0-.73-.19-.77a.27.27,0,0,0-.34.15c-.08.14-.3,0-.31-.11s-.39-.14-.41,0c-.14.29-.38.23-.75.09a1.32,1.32,0,0,0-.22-.85.64.64,0,0,1-.16-.41c0-.19-.28-.33-.42-.35a2,2,0,0,1-.72-.32,2.59,2.59,0,0,0-.09-1,3.9,3.9,0,0,1,0-.77l-.1-.25a2.78,2.78,0,0,1,.11-.54,1.68,1.68,0,0,0-1.07-1c-.34,0-.37-.78-.37-.78s-.1-.16-.21-.18-.16-.19-.19-.32-1,0-1.33.13a1.38,1.38,0,0,0-.55.36c-.23-.09-.85.54-.95.66a2,2,0,0,1-.61.53.55.55,0,0,1-.21-.47c-.91.21-1.12-1.19-1.12-1.19l-.29,0a1.32,1.32,0,0,1-.33.41l-.46-.13s-1.06,1.75-1.19,2-.23.21-.43.33-.47,1-.47,1.1a.2.2,0,0,1-.06.13l-.07,0c-.09.07.14.12.37.22s.1.33,0,.49a1.37,1.37,0,0,1-.55.41,1,1,0,0,0-.43.38l-.66.26-.1.61s.19.35.33.55.08.28-.06.82a2.72,2.72,0,0,1-1.33,1.39,21.38,21.38,0,0,0-2.51,2.68s-1.16,1-1.27,1-1.74,0-1.82,0-1.18.61-1.3.65a6.65,6.65,0,0,1-1.08-.09,4.89,4.89,0,0,0-1,.29,8.06,8.06,0,0,0-.66.67l-3.55.08V95.3h0l2.1,0,.13,1.11,0,1,.57.13,0,1,.58-.08,0,5-.52-.1v1.71h-.52v1h-.56v4.46h.53v.67h1.6l.14.53v.05h2.15v3.3l6.47-.1.15,8.07a4.26,4.26,0,0,1,.4-.55l1.41-.75c.22-.42,1-1.38,1-1.63a2.4,2.4,0,0,1,1.42-1.47s.27-1.1.4-1.54a1.34,1.34,0,0,1,.54-.78c.18-.13.28-.47.28-1.24a.85.85,0,0,1,1-.86c.5.15.38,1.24.37,1.4s.19.33.3.39a.69.69,0,0,0,.58,0,3.53,3.53,0,0,1,.92-.35c.21,0,.33-1,.45-1.71s1-1.13,1.43-1.37.75-.54.75-.87-.33-.71-.93-1-.38-1.19-.38-1.19l-.42-.89a1.78,1.78,0,0,1,.14-.35c.14-.28.89-.16,1.18-.09s.7,0,.82-.21-.58-.69-.78-.82.08-.6.11-.65a4.78,4.78,0,0,1,1.18-.06c1-.14.58-2.64.58-2.64s-.22-.35-.44-.77a2.34,2.34,0,0,0-1.1-.92c-.46-.23-.84-.43-.87-.91s1-1.14,1.33-1.09c.83.24.79.73.88,1.35a.9.9,0,0,0,.79.68,3.32,3.32,0,0,0,.65-.18c.15,0,.22-.26.25-.52a7.05,7.05,0,0,0-.07-1.38,1.44,1.44,0,0,1,.24-1.08c.17-.14.79,0,1,0s.27,0,.35-.19c-.08-1,1.29-1.7,2.4-2.19.92-1.52,1.68-1.56,2.24-1.6C154.27,94.36,153.27,93.09,153.06,92.87Z" transform="translate(0.25 0.25)"/>
  
  <path id="coosa" class="county" d="M157.49,167.34c-.6-.15-.5-.84-.09-.76V159.4L157,146.35v0l0-1.05-10.33,0h0l-10.78.28-9.37,0a1.65,1.65,0,0,1-.73.56c-.16,0-.72.45-.68.77a3.61,3.61,0,0,0,.22.95,2.57,2.57,0,0,1,0,.69l-.61.58a1.7,1.7,0,0,0,.21,1.2,5.62,5.62,0,0,0-.1,1.08,1.4,1.4,0,0,1,0,.36,1.82,1.82,0,0,1-.12.42c-.07.13-.12.27-.11,1.19.53.65,1,1.14.71,1.88a3.66,3.66,0,0,0-.2,1.87,2.16,2.16,0,0,1,.09.79.77.77,0,0,0,0,.5,1.18,1.18,0,0,1,0,.57,8.65,8.65,0,0,0,.66,1.09c.09,0,.33-.08.37,0s.53.93.53,1a10.93,10.93,0,0,1,.36,1.72,1.4,1.4,0,0,1,.58.58,1.69,1.69,0,0,0,.93.21c.14,0,.29.12.53.28s.49.62.25.84-.95,1-.86,1.61.11,1.46.43,1.39.74-.15.78,0-.17.14-.11.3,0,.21.19.38a2.69,2.69,0,0,1,.77.8c.61,0,1,.29,1.11.75s.25.4.33.5a1.5,1.5,0,0,1,.31.47c.14.31.14.51.59.72l.72.33h2.85v-1.1l1.07.1v1.1l19.77-.31h.08C157.49,170.8,157.49,167.74,157.49,167.34Z" transform="translate(0.25 0.25)"/>
  
  <path id="hale" class="county" d="M67.8,153l-6.63,0-11.82-.25.06.07c.12.06.1.09.22.34l.3.58-.32.43h-.84l-.43.47s0,.23-.13.28a.61.61,0,0,1-.67-.17,1.27,1.27,0,0,0-.63,0,1,1,0,0,0,.05.34.91.91,0,0,1,.07.57c.2.15.87.53.87.53a.87.87,0,0,0-.43.27c-.17,0-.51.2-.42.35s.39.07.63,0l.33-.12.23.21-.45.8-.54.42s-.17-.27-.55,0a.53.53,0,0,1,.26.57.45.45,0,0,1-.47-.25.15.15,0,0,0-.26,0,.68.68,0,0,0-.15.38c0,.19-.06.28-.14.2a1.11,1.11,0,0,0-.64-.32,2.22,2.22,0,0,0,0,.34,2.34,2.34,0,0,1,.37.41c.07.13.22.54.33.57s.36.22.26.29-.3.23-.3.23.06.34-.11.4-.36-.12-.36-.22-.19-.12-.29,0a1.71,1.71,0,0,0-.21.43l-.33,0s-.22-.34-.34-.22-.36.25-.46.15-.23-.24-.39-.16-.11.2-.11.2l.09.33s0,.24-.06.23a1.48,1.48,0,0,1-.25-.12l-.22-.22-.25.09,0,.23s.63.31.54.63a.64.64,0,0,1-.26,0,1.43,1.43,0,0,0-.54-.25,1.83,1.83,0,0,1-.07.74c.12.3.17.46.1.51a1.69,1.69,0,0,1-.34.17s-.17-.12-.17-.12l-.36.08s-.23.58.86.89c.12.14.19.25,0,.28a3.64,3.64,0,0,1-.56.05c-.12,0-.27.09-.22.27a.46.46,0,0,0,.45.39c.19.16.52.51.52.51l-.1.43a1.22,1.22,0,0,1,.21,1c.21.15.33.27.24.43a1.1,1.1,0,0,1-.48.13c-.09.23-.12.23-.07.31a2.81,2.81,0,0,1,.12.45,2.37,2.37,0,0,1-.89.51c-.09.26-.13.36-.13.36a6,6,0,0,0-1.1.94c-.47.14-.49,0-.57-.05s-.26-.08-.42.17l-.34.55a.93.93,0,0,0,1.47.2c.46.14.66.17.82.08s.19,0,.19-.22,0-.54.13-.51a.87.87,0,0,1,.56.28c.21.22,1.26,1.08,1.09,1.75-.11.48-.06.87-.54.79s-1.12.32-1.28,1.26a4.19,4.19,0,0,0,.43.77s.66.14.88-.24.4-.51.53-.47a1.46,1.46,0,0,0,.55.06.71.71,0,0,1,0,.44c0,.09-.31,1.17,0,1.48s.76.62.51,1a1.87,1.87,0,0,1-.29.48,1.08,1.08,0,0,0-.15.57c.17.28.53.78.53.78s1,.34,1.39,0,.75-.7.75-.7.42,0,.53.81c-.25.52-.61,1.22-.61,1.22l-.25.11s-.87-.59-1.13-.5a3.52,3.52,0,0,1-1.25.2c-.3-.07-1.06-.42-1.14.22a3.66,3.66,0,0,0,.63,1.36c.39.29,1.07.7,1.07.7a2,2,0,0,0,.57,0,6.77,6.77,0,0,1,1.33-.55c.16,0,.32.16.47.44s.49,1.06.57,1.2.29.4.07.46-1.26.19-1.5.86c-.09.3-.18.59-.39.59s-.25,0-.25-.12a.25.25,0,0,0,0-.18c-.06-.1,0-.16,0-.3s0-.4,0-.4-.36-.35-.57-.25c-.19-.1-.39-.32-.57.14,0,.28.09.71.09.71l0,1s-.43,0-.46-.32c-.15,0-.35,0-.31.35s.22,1.14.22,1.14a2.13,2.13,0,0,1-.5.8,1.86,1.86,0,0,0-.59.78s0,0,0,0l5.3.11,0,3.22h13v-8.93l0-4.21h3.24V174l.21-1.22,0-6.58,3.11-.1.06-3.19.14-7.38Z" transform="translate(0.25 0.25)"/>
  
  <path id="shelby" class="county" d="M135.7,126.2a4.12,4.12,0,0,0-.8-1.23,7.8,7.8,0,0,0-1.34-1c-.21-.14-.05-.52.15-.84l-.15-8.07-6.47.1v-3.3h-2.15l-.1,1.67-1.64-.11,0,.69-1.09-.12v.5l-.54,0v.66a.71.71,0,0,0-.53.4,3.55,3.55,0,0,1-.55.14v1h-.6v.57h-.59v.56s-1.14,0-1.17,0-3.14.1-3.14.1v1h-1.16s0,.78-.46.9v.72h-1.18v1.08l-2.15-.09v1.39s-.13-.07-.23.11a.33.33,0,0,1-.3.19v.56l-1.09-.12v1.73h-1.62v.18l-.53.15,0,.22-1.08-.1v2.22h-3.32v.44h-.55s.08.84-.53.9v.5h-.56s.13.37-.18.38-.36,0-.36.08-.29,0-.29.17-.07.29-.21.29v1.34h-.58l-.1.23h-.74v.55h-1.3v.54s-.35,0-.32.31c-.2,0-.35-.07-.35.29-.16-.08-.19-.1-.19.15a1.77,1.77,0,0,1,0,.33l-.43.11-2.33-.13h0v2.8h.37v1.41h-.4l.15,2h1.28v.33l2,0v.25l.33.11-.1,4.41h1.19v1.63h1.06v1.06l.86-.1s-.08.33,0,.33.29-.1.29,0-.06.29.06.29h1v.58H102l.13-1.62,3.46,0v.23l13.35-.17s-.81.67-.42,1.13a6.59,6.59,0,0,1,.83,0,1.57,1.57,0,0,0,1.3,1.15c.2,0,.17.12.24.26a.66.66,0,0,0,.28.27,2.87,2.87,0,0,1,.76.81,4.39,4.39,0,0,0,.65.2,9.06,9.06,0,0,1,1-.41c.14,0,.84,0,.84,0a1.53,1.53,0,0,1,.42.21,1.4,1.4,0,0,0,0-.36,5.62,5.62,0,0,1,.1-1.08,1.7,1.7,0,0,1-.21-1.2l.61-.58a2.57,2.57,0,0,0,0-.69,3.61,3.61,0,0,1-.22-.95c0-.32.52-.73.68-.77a1.65,1.65,0,0,0,.73-.56.4.4,0,0,0,.09-.2.83.83,0,0,1,.66-.73c.34,0,.42-.22.8-.4s.09-1-.13-1.29c-.76-.29-1.08-.64-1-1.42s-.88-1.15-1.27-1.4c-.15-.5.25-1,.47-1.52a.73.73,0,0,1,.76-.44c.12,0,.47.33.47.33a3.74,3.74,0,0,0,.7,0,.93.93,0,0,0,0-1.42c-.14-.15-.11-.94-.11-.94a3.21,3.21,0,0,1,.33-.8c.32-.63.87-.47,1.28-.29s.86-.69.94-1.1-.62-1.64-.62-1.64a1.13,1.13,0,0,1,0-.29,2.74,2.74,0,0,1,1.27.51,1.11,1.11,0,0,0,1.35-.14c.21-.19.89-.7.89-.7l.84-.41a.64.64,0,0,0,.38-.94.9.9,0,0,1-.2-.45c0-.19-.34-.62-.34-.62l.25-.71s0-.23-.16-.67,0-.61.14-.79.74-.17,1.08-.27S135.69,126.4,135.7,126.2Z" transform="translate(0.25 0.25)"/>
  
  <path id="tallapoose" class="county" d="M183.32,144.73l-3.73.09h0L170,145l-10.7.13v1.18H157l.36,13.05v7.18c-.41-.08-.51.61.09.76,0,.4,0,3.46,0,4.43h2.14v-1.09h1.09l.1,1.11h4.62a2.14,2.14,0,0,1-.75,2,3.42,3.42,0,0,1,.19.92c0,.06-.49.81-.52.83a2.11,2.11,0,0,0-.44.24s-.34,1.52-.33,1.61a3.91,3.91,0,0,0,.21.54,2.78,2.78,0,0,1,.2.57c.13.16,1.23,1.24,1.23,1.24s-.07.17-.1.28a5.16,5.16,0,0,1,0,.53c0,.17-.44,2.41-.42,2.53S165,185,165,185v.65a6.42,6.42,0,0,1,.15,2.29,3.27,3.27,0,0,0,0,.81c0,.31,0,2.39,0,2.39s.16.21.19.27l0,.13,5.72-.21L171,190l0-3.44-.16-1.08,0-.67,5.5-.11v-1l1.06-.1v-1.18l-.12-.37-.09-4.66.12-1.41,1.06-.14-.1-1.08,4.43-.19v-1.08h1.08Z" transform="translate(0.25 0.25)"/>
  
  <path id="montgomery" class="county" d="M162.59,207.34a1.67,1.67,0,0,1-.92-.68c-.72-1-.75-1.45-.53-1.62a3.53,3.53,0,0,0-.65-.79c0-.18,0-.51-.13-.5-1,.12-1.35-.18-1.49-.36a2.11,2.11,0,0,0-.19-.66.8.8,0,0,0-.13-.63.78.78,0,0,0-.34-.76,1.43,1.43,0,0,1-.29-.52.77.77,0,0,0-.22-.34,2.63,2.63,0,0,1-.34-.41.42.42,0,0,1,0-.55c.14-.15.05-.52,0-.67a.4.4,0,0,1,.09-.38.79.79,0,0,1-.27-.35c0-.1-.2,0-.22,0s-.12,0-.18-.12a1.87,1.87,0,0,0,0-.67,1,1,0,0,0-.1-.15c-.37-.47-1.08,0-1.21.05s-.09.69-.12.77-.11.1-.25.13a8.17,8.17,0,0,1-.94-.12s-.72-.18-.91-.25-.36-.38-.45-.51-.25-.09-.4-.09-.2.06-.38.1a6,6,0,0,1-.81,0l-.3.23-.21-.11s0-.35,0-.53-.56.3-.56.3l-.15-.06c-.23-.1-.14-.27,0-.42a.83.83,0,0,0,.19-.47c-.15-.13-1.14.44-1.53.62-.53,0-.39-.65-.39-.65l-.77-.42h-.66s-.2.24-.37.41c-.36.22-.71-.2-.7-.42a2,2,0,0,0,.88-.67c-.12,0-.37-.37-.41-.48s-.29,0-.4,0a1.09,1.09,0,0,1-.49.15c-.18,0-.63-1-.63-1a3.17,3.17,0,0,1,0-.41c0-.21-.17-.23-.3-.24s-.4.36-.45.43-.28-.14-.32-.42a.27.27,0,0,1,.28-.34c.12,0-.14-.57-.25-.76s-.37,0-.53.09-.2-.05-.17-.23-.37-.38-.45-.4a.37.37,0,0,1-.26-.16c-.13-.4-.74-.37-1-.35a.62.62,0,0,0,.11.84c.15.13.12.35,0,.39a.85.85,0,0,1-.63,0c-.2-.11-.19-.15-.45.13a3.69,3.69,0,0,1-.91.69,1.61,1.61,0,0,1-.39-.19,4.64,4.64,0,0,1-.36-.78.3.3,0,0,0-.47-.18c-.22.21-.19.43.1.73s.17.77-.05,1.51-.59,1-.7,1-.11.14-.14.29a2.19,2.19,0,0,1,1.17,2.07.53.53,0,0,1-.19.38c-.06,0-.23,0-.32-.08a1.49,1.49,0,0,1-.24-.55c0-.06-.47-.26-.61-.33a6.73,6.73,0,0,1-.77-.56,1.64,1.64,0,0,0-.58-.22l-.84.46-.78,0a3.28,3.28,0,0,0-.71.09,2.09,2.09,0,0,1-.6,0c-.13,0-.2.34-.2.34l.1.41a.29.29,0,0,1-.2.39,1.28,1.28,0,0,0-.41.12l-.13.05c-.2.06-.54.12-.54.12a3.26,3.26,0,0,0-.48.38,1.61,1.61,0,0,1-1.08.26,2,2,0,0,1-.9-.44l-.32.35a1.36,1.36,0,0,0,.07.38c.06.14,0,.26-.06.39a4.6,4.6,0,0,0,0,.75c0,.15-.42.62-.52.69a4.43,4.43,0,0,0-.38.49c-.1.13-.49.05-.75,0s-.37.31-.38.4a2.09,2.09,0,0,0,.18.67c.09.23-.22.57-.36.64l-.09,0c.07.24.24.47,1.11.39a2.22,2.22,0,0,0-.22.34,1,1,0,0,0,.59.33,2.43,2.43,0,0,1-.43,1.08.59.59,0,0,0-.21.41,1,1,0,0,1-.26.67,3.34,3.34,0,0,1,.21.41l0,.56s.27,1.23.87,1.39a2.3,2.3,0,0,1,1-.08,2.42,2.42,0,0,0,1.11,1,1,1,0,0,1,1.09.8.47.47,0,0,0,.47.36c.21,0,.48,0,.48,0l0,.44-.12.21.11,2.74.22,8.09v3.18l6.58-.07.1,6.53,7.09-.11,12.63-.2-.09-1-.07-5.4,0-2.89-.35-12.18h.89v-1.75l4.21-.17C163.42,207.71,162.81,207.44,162.59,207.34Z" transform="translate(0.25 0.25)"/>
  
  <path id="lowndes" class="county" d="M133.23,226.6l-.11-.65h-.64v-3.72l-.22-8.09-.11-2.74.12-.21,0-.44s-.27,0-.48,0a.47.47,0,0,1-.47-.36,1,1,0,0,0-1.09-.8,2.42,2.42,0,0,1-1.11-1,2.3,2.3,0,0,0-1,.08c-.6-.16-.87-1.39-.87-1.39l0-.56a3.34,3.34,0,0,0-.21-.41,1,1,0,0,0,.26-.67.59.59,0,0,1,.21-.41,2.43,2.43,0,0,0,.43-1.08,1,1,0,0,1-.59-.33,2.22,2.22,0,0,1,.22-.34c-.87.08-1-.15-1.11-.39-.41.1-2.09.4-2.09.4a1.15,1.15,0,0,1-.43-.08c-.23-.1-.24-1.22-.24-1.22s-.05-.2-.19-.64-.83-.3-1-.31-.79-.46-1-.5c-.75-.09-.79.65-.85.83a.28.28,0,0,1-.32.21,8.51,8.51,0,0,1-1.11-.75l-.13-.15c-.17-.23-.05-.52.09-1.3a1.12,1.12,0,0,0-.63-1.14l-.75.33a2.78,2.78,0,0,1-.57-.1c-.18-.07-.6.4-.68.53a3.19,3.19,0,0,0,0,.92,4.87,4.87,0,0,1-.1.62,10.46,10.46,0,0,1-1.57,1.54c-.25.19-2-.5-2-.5s-.34-.7-.52-1.09a8.27,8.27,0,0,0,.11-1.93s-.11-.18-.2-.2c-.35,0-.45.21-.7.61a2.3,2.3,0,0,1-1.48.67l-1.19-.54-.33.23s-.09,1.51-.1,1.63a.2.2,0,0,0,.11.19s.55,2.13.55,2.13l-.76,1.33a13.9,13.9,0,0,1-1.2,1c-.58.41-1.09-.41-1.16-.55a5.4,5.4,0,0,1,0-1.15,2.15,2.15,0,0,1,.12-.65l0,0-1.91.84v1.55a2.33,2.33,0,0,1,1.52.24c-.43.49-.64.7-.64.7l-.56.24-.11.44s-1.32.5-1,1.21a11.82,11.82,0,0,1,.5,1.14c.28.25,1.65,1.78,2,1.71a4.16,4.16,0,0,0,.88-.2v1h-6.35l.09,1.94.12,11.43h3.12l-.12,1,.14,5.59,10.52,0,15.77-.26,2.14,0,.55.12-.12-5.5Z" transform="translate(0.25 0.25)"/>
  
  <path id="perry" class="county" d="M92.51,178.36c-.13-.52-.2-1-.2-1a8.27,8.27,0,0,1,1.08-3.22l-.13-8.34-12.91.11-.67.25s-4.84.14-5.37.11v-3.37l-6.52,0-.06,3.19-3.11.1,0,6.58L64.38,174v5.47H61.14l0,4.21v15.64s-.16,1.22-.16,1.18.09,5.51.09,5.51l1.15-.09,5.25,0,0-13.4s12-.12,12.07-.09a7.92,7.92,0,0,0,1-.11h6.62s.39-.19.41-.33a.7.7,0,0,1,.51-.73c0-.22,0-.34,0-.47a.33.33,0,0,0,0-.3c0-.12.15-.81.41-.94a8.66,8.66,0,0,1,.39-.91.39.39,0,0,0,.5-.33l.24-1.16s-.4-.32-.29-.6.09-.32,0-.38a.92.92,0,0,1-.09-.32,16.79,16.79,0,0,1,1.92-1.54c.34-.12.66-.18.74-.46a.88.88,0,0,0-.11-.86,3.33,3.33,0,0,1-.38-.71,8.46,8.46,0,0,1,.15-1.91A10.34,10.34,0,0,1,92.51,178.36Z" transform="translate(0.25 0.25)"/>
  
  <path id="elmore" class="county" d="M167.39,192.55a4.47,4.47,0,0,0-.64,0c-.35,0-1.09-.69-1.24-.79a.7.7,0,0,1-.16-.2l0-.13c0-.06-.19-.27-.19-.27s0-2.08,0-2.39a3.27,3.27,0,0,1,0-.81,6.42,6.42,0,0,0-.15-2.29V185c0-.06-.31-1.83-.32-1.94s.39-2.36.42-2.53a5.16,5.16,0,0,0,0-.53c0-.11.1-.28.1-.28s-1.1-1.08-1.23-1.24a2.78,2.78,0,0,0-.2-.57,3.91,3.91,0,0,1-.21-.54c0-.09.31-1.56.33-1.61a2.11,2.11,0,0,1,.44-.24s.5-.77.52-.83a3.42,3.42,0,0,0-.19-.92,2.14,2.14,0,0,0,.75-2h-4.62l-.1-1.11h-1.09v1.09h-2.22l-19.77.31V171l-1.07-.1V172h-2.85l.47.21v.14l-2.47.11v3.22h0l.31,22.38.13-.05a1.28,1.28,0,0,1,.41-.12.29.29,0,0,0,.2-.39l-.1-.41s.07-.36.2-.34a2.09,2.09,0,0,0,.6,0,3.28,3.28,0,0,1,.71-.09l.78,0,.84-.46a1.64,1.64,0,0,1,.58.22,6.73,6.73,0,0,0,.77.56c.14.07.61.27.61.33a1.49,1.49,0,0,0,.24.55c.09,0,.26.12.32.08a.53.53,0,0,0,.19-.38,2.19,2.19,0,0,0-1.17-2.07c0-.15,0-.28.14-.29s.48-.27.7-1,.34-1.21.05-1.51-.32-.52-.1-.73a.3.3,0,0,1,.47.18,4.64,4.64,0,0,0,.36.78,1.61,1.61,0,0,0,.39.19,3.69,3.69,0,0,0,.91-.69c.26-.28.25-.24.45-.13a.85.85,0,0,0,.63,0c.08,0,.11-.26,0-.39a.62.62,0,0,1-.11-.84c.28,0,.89-.05,1,.35a.37.37,0,0,0,.26.16c.08,0,.5.09.45.4s0,.32.17.23.42-.29.53-.09.37.75.25.76a.27.27,0,0,0-.28.34c0,.28.26.48.32.42s.32-.44.45-.43.32,0,.3.24a3.17,3.17,0,0,0,0,.41s.45,1,.63,1a1.09,1.09,0,0,0,.49-.15c.11-.09.35-.15.4,0s.29.46.41.48a2,2,0,0,1-.88.67c0,.22.34.64.7.42.17-.17.37-.41.37-.41h.66l.77.42s-.14.66.39.65c.39-.18,1.38-.75,1.53-.62a.83.83,0,0,1-.19.47c-.1.15-.19.32,0,.42l.15.06s.57-.48.56-.3,0,.53,0,.53l.21.11.3-.23a6,6,0,0,0,.81,0c.18,0,.23-.1.38-.1s.32,0,.4.09.26.44.45.51.91.25.91.25a8.17,8.17,0,0,0,.94.12c.14,0,.22-.06.25-.13s0-.69.12-.77.84-.52,1.21-.05a1.83,1.83,0,0,0,.93-.66,2.9,2.9,0,0,0,1-.18c.14-.09-.05-.78-.18-1.11l.27-.57c.22,0,.25.49.25.62s.07.25.28.37.31-.24.47-.43c0-.08-.17-.28-.29-.43s.29-.22.46-.21c.5,0,.59.36.73.9a2.58,2.58,0,0,0,1.89-.86.86.86,0,0,1,.67,0,1.23,1.23,0,0,0,.6.08,3.24,3.24,0,0,1,1.1.16.87.87,0,0,0,1-.31c-.46-.08-.2-.31,0-.39-.24-.32.09-.66.15-.71a.45.45,0,0,0,.05-.36,1,1,0,0,1,1.15-.24c.13,0,.26-.13.26-.13Z" transform="translate(0.25 0.25)"/>
  
  <path id="wilcox" class="county" d="M100.24,232.31h3.38l-.14-5.59.12-1h-3.12l-17.57.1s.23-.59.28-.75c.12-.92-.47-.89-.76-.95s-.3-.67-.24-.72a2.41,2.41,0,0,0,.31-.54c0-.15-.26-.17-.37-.15-.43.18-.52,0-.61-.2a.6.6,0,0,0-.64-.24,2.41,2.41,0,0,0-.89-.24c-.62,0-.83-1.25-.83-1.43s-.46-.51-.8-.7a1.33,1.33,0,0,1-.75.09l.62-.88c.09-.13.06-.19.06-.44s-1-.52-1.19-.52a2.49,2.49,0,0,0-.53.13l-.34-.34c0-1.16-.55-1.4-.55-1.4l-.39.11a11,11,0,0,1-.87-1.29c-.67-.12-.52-.59-.46-.84s-.24-.37-.52-.25a2.76,2.76,0,0,0-1.63-.32l-.41.31a.4.4,0,0,1-.24,0,2,2,0,0,1,.12-.4c0-.1-.35-.27-.35-.27a6.06,6.06,0,0,1-.31-.79c0-.21,0-.45-.11-.51-.84,0-.74-.47-.74-.73s-.18-.41-.55-.56c-.1.13-.45.19-.64.27a2.06,2.06,0,0,0-.57-.52,10.78,10.78,0,0,1-1.25-1.27c.13-.54-.56-.81-1-.92a1.54,1.54,0,0,1-1.89.44c-.15-.11-.62,0-.85,0a1.58,1.58,0,0,1-.76-.2c-.4-.2-1.22,1.08-1.22,1.08v9.36l-6.48-.08,0,9.56-2.91.34V230l0,8.74h2l1,.44.12,3.21,4,0,3.69-.14h0l17.45,0,.84.2,19.74-.17h0v-7.41l-.15-.25Z" transform="translate(0.25 0.25)"/>
  
  <path id="chilton" class="county" d="M134.21,172.33v-.14l-.47-.21-.72-.33c-.45-.21-.45-.41-.59-.72a1.5,1.5,0,0,0-.31-.47c-.08-.1-.2,0-.33-.5s-.5-.71-1.11-.75a2.69,2.69,0,0,0-.77-.8c-.22-.17-.12-.21-.19-.38s.15-.1.11-.3-.45-.12-.78,0-.34-.79-.43-1.39.61-1.4.86-1.61,0-.68-.25-.84-.39-.28-.53-.28a1.69,1.69,0,0,1-.93-.21,1.4,1.4,0,0,0-.58-.58,10.93,10.93,0,0,0-.36-1.72c0-.05-.49-.87-.53-1s-.28,0-.37,0a8.65,8.65,0,0,1-.66-1.09,1.18,1.18,0,0,0,0-.57.77.77,0,0,1,0-.5,2.16,2.16,0,0,0-.09-.79,3.66,3.66,0,0,1,.2-1.87c.26-.74-.18-1.23-.71-1.88,0-.92,0-1.06.11-1.19a1.82,1.82,0,0,0,.12-.42,1.53,1.53,0,0,0-.42-.21s-.7,0-.84,0a9.06,9.06,0,0,0-1,.41,4.39,4.39,0,0,1-.65-.2,2.87,2.87,0,0,0-.76-.81.66.66,0,0,1-.28-.27c-.07-.14,0-.23-.24-.26a1.57,1.57,0,0,1-1.3-1.15,6.59,6.59,0,0,0-.83,0c-.39-.46.42-1.13.42-1.13l-13.35.17v-.23l-3.46,0L102,149.7h.36v16.24L97,165.7l-1.41.14-2.31,0h0l.13,8.34.08,4.93,2.78-.12,3.44-.06h0l5.76.44,7.29-.3-.09-3.21s17.05-.24,19.07-.17h0v-3.22Z" transform="translate(0.25 0.25)"/>
  
  <path id="autauga" class="county" d="M131.73,175.67c-2-.07-19.07.17-19.07.17l.09,3.21-7.29.3-5.76-.44h0a1,1,0,0,0,.13,1.24.49.49,0,0,0-.1.24l.42,1-.09,1.15.33.89s.29,1.94.36,2.16a5.42,5.42,0,0,1,.06,1.38c-.06.16-.24.58-.24.58l-.1,1,.33.22-.07.44a2.31,2.31,0,0,1,.72,1.82c.43.56.69,1.16.58,1.38s-.17.33-.17.33.94.91.87,1.63a.77.77,0,0,1,.23,1.34,1.37,1.37,0,0,1,0,.36,1,1,0,0,0,.46,0c.17-.06.18-.11.34-.07s.27,0,.37.16a2,2,0,0,0,1.12.57l.3.3a.51.51,0,0,1-.21.26,4.68,4.68,0,0,1-1,.42,2,2,0,0,0,.5,1.77.48.48,0,0,1,.16.18l.18.62a2.76,2.76,0,0,1,1.32,2.82c-.21.17-.44.33-.52.39a2.15,2.15,0,0,0-.12.65,5.4,5.4,0,0,0,0,1.15c.07.14.58,1,1.16.55a13.9,13.9,0,0,0,1.2-1l.76-1.33s-.51-2.1-.55-2.13a.2.2,0,0,1-.11-.19c0-.12.1-1.63.1-1.63l.33-.23,1.19.54a2.3,2.3,0,0,0,1.48-.67c.25-.4.35-.61.7-.61.09,0,.2.2.2.2a8.27,8.27,0,0,1-.11,1.93c.18.39.52,1.09.52,1.09s1.76.69,2,.5a10.46,10.46,0,0,0,1.57-1.54,4.87,4.87,0,0,0,.1-.62,3.19,3.19,0,0,1,0-.92c.08-.13.5-.6.68-.53a2.78,2.78,0,0,0,.57.1l.75-.33a1.12,1.12,0,0,1,.63,1.14c-.14.78-.26,1.07-.09,1.3l.13.15a8.51,8.51,0,0,0,1.11.75.28.28,0,0,0,.32-.21c.06-.18.1-.92.85-.83.21,0,.8.49,1,.5s.9-.14,1,.31.19.64.19.64,0,1.12.24,1.22a1.15,1.15,0,0,0,.43.08s1.68-.3,2.09-.4l.09,0c.14-.07.45-.41.36-.64a2.09,2.09,0,0,1-.18-.67c0-.09.13-.47.38-.4s.65.15.75,0a4.43,4.43,0,0,1,.38-.49c.1-.07.52-.54.52-.69a4.6,4.6,0,0,1,0-.75c.05-.13.12-.25.06-.39a1.36,1.36,0,0,1-.07-.38l.32-.35a2,2,0,0,0,.9.44,1.61,1.61,0,0,0,1.08-.26,3.26,3.26,0,0,1,.48-.38s.34-.06.54-.12Z" transform="translate(0.25 0.25)"/>
  
  <path id="morgan" class="county" d="M122,34.06l-1.05-.8A1.8,1.8,0,0,0,119.7,33c-1.28,0-2.46,1.72-2.76,2.22s-.94.35-1.62.08-.62-1.14-.6-1.79a5.65,5.65,0,0,0-.5-.61c-.2-.19-.2-.15-.41-.14a4.45,4.45,0,0,0-.86-.36,2.92,2.92,0,0,1-.72.22,7.67,7.67,0,0,0-1.08,1,1.08,1.08,0,0,0-.14.23l-.29.19a12.26,12.26,0,0,1-.89,1,1.08,1.08,0,0,1-1,.25,2.46,2.46,0,0,1-1.22.12,9,9,0,0,1-1.36-.31,9.26,9.26,0,0,1-1.62-.1,8.74,8.74,0,0,0-1.38-.85,22.69,22.69,0,0,1-4.16-1.59,16.32,16.32,0,0,0-2.69-1.76l-1.33-1.11A3.2,3.2,0,0,0,93.92,29a1.84,1.84,0,0,1-.65-.61,2.22,2.22,0,0,0-.87-.61c-.2-.08-.48,0-1,.17a10.47,10.47,0,0,0-2.13-1.52,9.58,9.58,0,0,0-1.23-1.31l-.31,24.07-.15.61a7.93,7.93,0,0,1,.15,1.49c0,.48-.11,1.56-.09,2.1l1,.24s20.88.34,31.87.54V48.9s1.06-7.83,1.14-8.45.48-2.8.48-2.8.08-1,.08-1.65a.35.35,0,0,0,.25-.16C122.75,35.37,122,34.06,122,34.06Z" transform="translate(0.25 0.25)"/>
  
  <path id="washington" class="county" d="M36.91,274.79c-.19.21-.11.73-.11.73l-.32.48s-.09-.27-.21-.54c-.42-.32-1.21-.06-1.21-.06l-.08.22s.12.49.16.69,0,.18-.11.17-.18-.16-.33-.35-.87.16-1,.23-.18,0-.27,0-.12-.1-.07-.22a1.63,1.63,0,0,0,.84-.79.67.67,0,0,1,.13-.59,7.48,7.48,0,0,1,1.31.06c.59-.33.15-.78-.08-.87a1.12,1.12,0,0,0-.92.29c-.3-.46,0-.7.14-.78a3.05,3.05,0,0,0,.79-.78c.13-.24-.34-.58-.61-.83-.95-.18-.83-.52-.81-.66s.14-.12.54-.16.66-.26.68-.4a3.11,3.11,0,0,0-.12-1.13.39.39,0,0,1,.08-.57,7,7,0,0,0,.71-1.17v-.53l-1-.49c-.5-.25-.45-.63-.62-1.18-.25-.86-1.94-.95-2.35-1a.77.77,0,0,1-.66-.41.58.58,0,0,0-.49-.34,3,3,0,0,1-1.2-.55c-.21-.19-.43-.13-.69-.29a3.63,3.63,0,0,0-1-.57,5.62,5.62,0,0,0-.62-1.13l.23-.12a4.66,4.66,0,0,0,.9.43c.58-.06.33-.47.18-.75s-.42-.31-1.67-.36a2.53,2.53,0,0,1-2.12-1.71c.43-1,.13-1.24,0-1.42s-.49-.56-.5-.82a11,11,0,0,0-.18-1.37c-.08-.41.31-.47.49-.49a.36.36,0,0,0,.35-.31,7.38,7.38,0,0,0-.72-1.88,4.78,4.78,0,0,0,0-.48c0-.16-.1-.18-.14-.19h0L.39,251.55,1.52,296l6.67-.06s.19-2.27.13-2.18,19.94.26,19.94.26l2.17-2.31,1.12.79a2.2,2.2,0,0,1,.87.22c.23-.21.71-.11.91-.13s0-.47-.16-.69-.15-.27.07-1a7.18,7.18,0,0,1-.2-.73,3.77,3.77,0,0,1-.12-1c.16,0,.32-.13.65-.46-.11-.23,0-.62.08-.73.46-.13.48-.28.47-.5a.47.47,0,0,1-.31-.32,4.89,4.89,0,0,0-.49-.76c-.11-.18-.22-.26-.67-.33a1.14,1.14,0,0,1-.83-.65c-.08-.22-.08-.28-.33-.35-.06.22-.67.35-.86.19s-.11-.37.35-.52a.82.82,0,0,1,1.08-.5,1.11,1.11,0,0,0,.5.24c.36-.1,0-.77-.06-.9s.13-.33.27-.36.2-.12.3-.22.06-.54.06-.84c-1.26-.21-1.09-1.18-.82-1.31.79-.36,1.8.48,1.8.48l.34,0a4.45,4.45,0,0,0,.42-1.89.32.32,0,0,1,.3-.37c.18,0,.2.12.36.22s.08.28-.12.52a.41.41,0,0,0-.07.49c0,.1.11.12.4.07A.48.48,0,0,1,36,280a1,1,0,0,1,.35-1c.11-.07.17-.3.28-.8a1.06,1.06,0,0,0,.2-1.52s.19-.45.39-1S37,274.72,36.91,274.79Z" transform="translate(0.25 0.25)"/>
  
  <path id="escambia" class="county" d="M113.51,290.41a.53.53,0,0,0-.18.28l-.77-.08s-.11.21.23.48c-.45,0-.76,0-.76,0l-.34.12-.21-.11.1-.33h-.23s-.16-.56-.6-.24c-.43-.14-.53-.14-.69.13a8.32,8.32,0,0,0-.43.91.42.42,0,0,1-.09-.29c0-.17.1-.32.1-.39s0-.5.08-.56a2.69,2.69,0,0,1-.53-.22.56.56,0,0,1,.32-.62.7.7,0,0,0-.31-.22s-.09-.11.06-.21.51-.59.28-.9a.76.76,0,0,1-.13-.82c-.13-.16-.33-.37-.3-.61a4.48,4.48,0,0,1,.08-.51,1.69,1.69,0,0,0,.54-.74l-42.9,0H62.76s-.38.68-.84.73a2.75,2.75,0,0,0-1.8.63,2.48,2.48,0,0,1-1.52,1l-1.23-.22a3.21,3.21,0,0,0-2.33-.86l-.45-.22h0l0,9.56L54.45,300l0,5.22h1.22c0-.14.08-.23.16-.23.26,0,31.48.15,58.05.29V290.7A.41.41,0,0,0,113.51,290.41Z" transform="translate(0.25 0.25)"/>
  
  <path id="mobile" class="county" d="M33.73,308.75c-.33,0-.54-.54-.61-.79a.89.89,0,0,0-.33-.56,2,2,0,0,1-.88-.09c-.36-.11-.16-.39-.13-.49s.19-.42.17-.51a.42.42,0,0,1,0-.26c0-.05.15-.36.15-.36s0-.62,0-.72,0-.25-.07-.29-.05-.16-.14-.27-.12-.15,0-.28.19-.25.43-.25.32-.49.35-.68c-.14-.05-.3-.36-.42-.76.11-.51.32-.53.65-.7s.43-.58.41-1.37-1.54-.83-1.54-.83l-.72-.94c-.18-.23.06-.67.28-.86s.57-.69,1-1.21a2.58,2.58,0,0,0,.69-1.3,3.26,3.26,0,0,1,.24-1.07.57.57,0,0,0-.07-.72c-.1-.06-.15,0-.43.17a1.51,1.51,0,0,1-1,.05c-.16-.06-.7-.66-.49-1a.35.35,0,0,1,.24-.18l-1.12-.79L28.26,294s-20-.18-19.94-.26-.13,2.18-.13,2.18L1.52,296l1.39,54.91a5.68,5.68,0,0,1,1.44.24,3.44,3.44,0,0,1-.29-.47s.27-.61.42-.56.42.07.43.23.19.78.23.64.19-1.16.43-1.16,1.52,0,1.6.07,2,1,1.18,2.38c.23,0,.62-.1.67-.25a9.86,9.86,0,0,1,.77-1.65c.07.06.62.56.59.62s-.27.29-.08.3l1.74.12,3,1.74s1.66-.42,1.66-.42l-.25,1.7-.6.37.58.62-.29,1.06,2.55-.75-.21-1,.66-.28.32.77.55-.84.16.62L19.23,356l.55.95,1.95-4.19.4-4.28L22,345.94l-.34-.37.86-.56-.3-2.8,1.4-2.77L23.21,338,22,337.2l-.51-1.1-1.07.21.21-1.2h.74l.1-.92s.43-.4.59-.33.45.08.34.24-.75,1.07-.67,1.17.73,1.41.73,1.41l1,.71.83-.84.94-1.67s-.42-3.58.53-4.2a10.46,10.46,0,0,0,1.21-.85l-.18-1.22s.27-.33.45-.25l1.41.62c1-1.44.48-1.81.09-2.25s-.37-1.92-.37-2a9.57,9.57,0,0,0-.69-1l.37-.85L28,322l.42-.78,1.31-.43.28-.26,0-1.23,1.71-.85.89,0,.42-.3,0-.88-1-1.17-1.51-.75-.32-.95.72-1.29,1.34-1.24s0-.27,0-.74a1.81,1.81,0,0,0,.12-.56,1.15,1.15,0,0,1,1.06-.43,3.51,3.51,0,0,0,.87-.43C34.28,309.31,34.07,308.79,33.73,308.75Z" transform="translate(0.25 0.25)"/>
  
  <path id="bladwin" class="county" d="M65.57,344.71a3,3,0,0,1,.33-.61c.07,0,.3-.22.3-.32a3.83,3.83,0,0,1-.86-1.32c-.08-.47-.36-1.2-.18-1.54s.89-2.2,1.25-2.38.61-.32.66-.63a15.46,15.46,0,0,1,.76-2.69c.19-.16.61-.51.61-.82a19.69,19.69,0,0,0,.09-3.17,7,7,0,0,0-1-1.58A25,25,0,0,0,65,327.89c-.25,0-1.19-.06-1.29-.27s-.56-1-.79-1.06a8.3,8.3,0,0,1-1.33-.38,10.4,10.4,0,0,1-1.72-1.51,17.08,17.08,0,0,0-1.31-3.11c-.35-.32-4.88-4.66-5-5.07A7.45,7.45,0,0,1,53,315c.06-.14,3-6.66,3-7a12.57,12.57,0,0,1-.33-2.77H54.42l0-5.22.08-3.94,0-9.56H53.18a2,2,0,0,0-.83-.45,2,2,0,0,1-1.08-.55,11.07,11.07,0,0,1-1.12-1.08c0-.05-.47-1-.74-1.08a.8.8,0,0,1-.55-.52c-.1-.26-.25-.62-.34-.65a1,1,0,0,0-.9,0c-.4-.13-.92-.33-1.07-.19s-.56.36-.56.42l-.42-.13-.59.13a.3.3,0,0,1-.09.23,1,1,0,0,1-.46-.07l-.42-.18h-.32a.38.38,0,0,0-.33-.34c-.18-.37-.29-.66-.29-.66s0-1.07-.92-.64a2.72,2.72,0,0,0,.15.9c.34.23.93.93.86,1.32a2.68,2.68,0,0,1,.54.5.73.73,0,0,1-.29.67c-.34.23-.51.35-.74.25s-.87-.59-1.12-.58a.8.8,0,0,0-.15-.16l-.33.15a2.81,2.81,0,0,0-.35,1.11c-.2.28-.44.42-.67.34a1.28,1.28,0,0,1-.43-.17c-.15,0-.28-.07-.32.13s-.08.44.22.41.59,0,.64.2a.53.53,0,0,1-.12.54c-.18.19-.26.35-.12.53a2.51,2.51,0,0,1,.39.63c0,.1-.16.25-.16.25l-.28-.15s-.55-.75-.71-.74-.85.19-.4,1.3a3.6,3.6,0,0,1,.67.78c0,.08.11.26,0,.34l-.43.19s-.77-.77-.77-1-.37-.07-.29.56a7.06,7.06,0,0,0,.08.73s-.19.07-.23,0-.28-.24-.33-.23-.21,0-.19-.1-.16-.29-.3-.21-.62.24-.66.54c-.2-.07-.5-.16-.52-.11a3.05,3.05,0,0,0-.11.29l-.44.27s.16.38-.07.4a1.84,1.84,0,0,1-.92-.12c-.31-.13-.88-.32-1.17-.42a7.18,7.18,0,0,0,.2.73c-.22.68-.19.73-.07,1s.36.67.16.69-.68-.08-.91.13a2.2,2.2,0,0,0-.87-.22.35.35,0,0,0-.24.18c-.21.37.33,1,.49,1a1.51,1.51,0,0,0,1-.05c.28-.19.33-.23.43-.17a.57.57,0,0,1,.07.72,3.26,3.26,0,0,0-.24,1.07,2.58,2.58,0,0,1-.69,1.3c-.46.52-.81,1-1,1.21s-.46.63-.28.86l.72.94s1.52,0,1.54.83-.09,1.2-.41,1.37-.54.19-.65.7c.12.4.28.71.42.76,0,.19-.11.68-.35.68s-.44,0-.43.25-.08.18,0,.28.07.21.14.27.07.19.07.29,0,.72,0,.72-.12.31-.15.36a.42.42,0,0,0,0,.26c0,.09-.15.42-.17.51s-.23.38.13.49a2,2,0,0,0,.88.09.89.89,0,0,1,.33.56c.07.25.28.75.61.79s.55.56.59.91a3.51,3.51,0,0,1-.87.43,1.15,1.15,0,0,0-1.06.43,1.81,1.81,0,0,1-.12.56c0,.47,0,.74,0,.74l-1.34,1.24-.72,1.29.32.95,1.51.75,1,1.17,0,.88-.42.3-.89,0-1.71.85,0,1.23-.28.26-1.31.43L28,322l.1.83-.37.85a9.57,9.57,0,0,1,.69,1c0,.09-.05,1.55.37,2s.87.81-.09,2.25l1.28.55s3.69.37,3.62.43-.42.71-.33.79a5.3,5.3,0,0,1,.65,1c0,.1,0,.37.07.39a1.93,1.93,0,0,1,.47.27c0,.05.15,3.81.15,3.81l.73,2.51-.1,1.15L33,344.1,34,345l.76,4.46,2.6,2.12,1.62.51.21-.38-.41-1,1.14-1.44,1,2.05-1.17.4-.3,1.1a7.26,7.26,0,0,0,2.22,3.07,7.86,7.86,0,0,1,3,2.89c.29-.4.43-.61.43-.61l.94-.08.15,1,.82.87-.2.64-1,.29.1-1.37-.44-.62-1.6,2.34a15.72,15.72,0,0,1-1.68.39c-.41,0-1.85.05-1.85.05l-1.91.85-2.91.11a2.93,2.93,0,0,1-1.74-1.1c-.3-.33-.37-.48-.85-.47s-.46,0-1.59.86c.12.15.46.51.46.51l-.31.43-.43-.31-3.45.38-.83.79.21.43,3.87-.75,9.09.23,3.6-.33,10.1-1.74,4-1.2.14-.42-.9.07.88-.51-.23-.64,1.32.13,1.77-1.11-.71-.3-1.42.94-1-.4-1.38.65-1.86-.39,0-.53,1.17-1.21-.69-.41,0-.82L54,355l.77-.55L54,354.2l.07-.46.77-.42.79,2,.38-.94.71-.06-.67,2.23.53,1.28.45-.86.65.27-.06-.84.54.09.56,1,.47-1.15,1.1.15.36-1.47-.64.12-.1-.35.44-.31.12-1.05.41.16.49,1.56.08-2.08.45-.18.54,2.09s2.23-2.42,2.33-3.08.16-1.27.16-1.27l1-1.32,2.19-.55.3-1.14-2.35-1.95Z" transform="translate(0.25 0.25)"/>
  
  <path id="choctaw" class="county" d="M35.31,205.67a.54.54,0,0,0,0-.18l-19.59,0-12.07-.22L0,236.32l.39,15.23,23.87.27h0l-.2-1s.05-.89.09-1.35a8,8,0,0,0-.72-2.29.68.68,0,0,0-.85-.34c-.13,0-.75.6-.78.64a5.44,5.44,0,0,1-.58.36c-.11.05-.61-.51-1.21-1.11a2.47,2.47,0,0,1-.37-1.85l-.76-1.26s-.2-.62-.34-1a1.46,1.46,0,0,0,.55-.76,1.24,1.24,0,0,0,.76-1.48c0-.45.91-.87,1.09-1a17.11,17.11,0,0,0,.85-2.26s.05-.33.1-.76.7-.42,1.21-.42a3,3,0,0,0,2.12-.84.4.4,0,0,1,.23-.17.3.3,0,0,0,.19-.12,2.38,2.38,0,0,1,.89.18c.63-.34-.36-1.1-.49-1.17s-1.1.73-1.22.86a.21.21,0,0,1-.32,0c-.08-.08-.35-.53-.61-.95a.54.54,0,0,0-.79-.2c-.18.07-.34,0-.5-.39-.23-.55.42-1,1.12-1.4s1.32.43,1.46.58.47,0,.73-.39a3.07,3.07,0,0,1-.43-1.15l.44-.47c.11-.13.13-.4.07-.44a1,1,0,0,1-.33-.14,2.7,2.7,0,0,1-.87-1.33c-.37-.09-.33.23-.31.41a2.65,2.65,0,0,1-.11.62c0,.14-.23.14-.23.14l-.55-.52-.72-1.29s.15-.86.27-1.43a1.09,1.09,0,0,0-.18-1c-.1-.2-.22-.28.13-.78a5,5,0,0,1,1.75-1.14,4.53,4.53,0,0,1,1.13.73c.1.11.49-.4.58-.6a2.57,2.57,0,0,1,.77-.67c.14-.08.21-.11.39-.53a2.83,2.83,0,0,0-.51-1.08c-.09-.13.15-.75.39-1.15a3,3,0,0,0,.21-1.64c0-.73.75-.65,1.14-.6A5.24,5.24,0,0,0,30,215.43a2.68,2.68,0,0,0-.34-1.77s.28-.86.4-1.16-.2-.79-.42-1.15,0-.65.24-1.06a1.22,1.22,0,0,0-.34-1.61c-.38-.25-.21-1-.18-1.1a.78.78,0,0,0,0-.37c0-.1.43.15.55.24a.52.52,0,0,0,.33.11c.1,0,0-.41,0-.79s.28-.32.73-.32.43,0,.56-.37a.85.85,0,0,1,.61-.5.35.35,0,0,1,.3.37c0,.22.14.38.6.42s1.1-.66,1.1-.66a.69.69,0,0,1,.33.1c.56.38-.09,1.28-.26,1.44a.27.27,0,0,0-.08.31h.62c.36,0,.42-.31.47-.38s-.18-.42-.21-.57A3.44,3.44,0,0,1,35.31,205.67Z" transform="translate(0.25 0.25)"/>
  
  <path id="lamar" class="county" d="M35,86.57l.13-3.32v-.08l0-6.47.14-1.28-2.31-.1,0-2.3-13.64-.57-4.69,39.84c2.3.08,10.53.4,11.82.43,1.31.29,8.63.52,8.63.52h0c.06-1.22,0-6.19.1-6.77S35,86.57,35,86.57Z" transform="translate(0.25 0.25)"/>
  
  <path id="sumter" class="county" d="M39.73,184.15l.32,0,.21-.46.71-.35c.14-.06.16-.11.13-.2a3,3,0,0,0-.75-.74.76.76,0,0,0-.31-.55h-.66a5,5,0,0,1-.65-.08,3.85,3.85,0,0,1-1.14.5.63.63,0,0,1-.77-.44,1.86,1.86,0,0,0-.56-.56,4.07,4.07,0,0,0-.65-.37s-.48.2-.68.32-.17.14-.46.1a10.13,10.13,0,0,0-2,1.2l-2.34.88-.57.12a1.17,1.17,0,0,0-.27-.2c-.35-.28-1.08.32-1.56.58s-.73-.36-.77-.6a1.67,1.67,0,0,0-.71-1.1c-.53-.38-.46-.81-.46-1.26s.27-.59.45-.57a3.83,3.83,0,0,0,.79-.1c.41-.07.44-.34.56-.91a1.22,1.22,0,0,0-.22-1.17.4.4,0,0,1,.15-.59,1.22,1.22,0,0,0,.49-.4c.12-.19.3-.24.46-.4.12-.33-.34-.71-.77-.85a5.33,5.33,0,0,1-1.44,1c-.92.46-2.49-.76-2.49-.76a2.89,2.89,0,0,1,0-.5c0-.24.54-.21.81-.2,1.32-.5,1.34-1.38,1.34-1.58s-.92-.83-1.39-1.14a5.49,5.49,0,0,1-.24-1.67,5.38,5.38,0,0,0-.18-.51c-.18-.67.67-1,.79-1s.53.27.72.48.26.2.47.15c.41-.16.91-1.15.91-1.15a4.53,4.53,0,0,0-.24-.93c-.16-.42-.55-.35-1-.23a8.43,8.43,0,0,0-1.15.71c-.11,0-.28-.22-.29-.55s-.83-.86-.83-.86L23.17,166a3.38,3.38,0,0,0-.53-.39c-.28-.17-.72.41-1,.66s-.54,0-.8-.29c-1.12.09-1.32-.21-1.29-.53s.69-.1.76,0,.23-.11.56-.42a1.14,1.14,0,0,0,.43-1.11c0-.27-.21-.25-.33-.28s-.41,0-.43-.26a.68.68,0,0,0-.52-.56c-.33-.12-.36-.49-.43-.77a9.58,9.58,0,0,1-.07-1.59c0-.64-.6-.88-1-1s-.28-.65-.17-.81.23-.37.4-.65c.18,0,.82.31,1,.39s.63-.47.66-.59-.25-.49-.52-.68a1,1,0,0,1-.5-.84c0-.36.46-.47.59-.22a1.19,1.19,0,0,0,.44.4,5.68,5.68,0,0,0,.66-.26c.39-.33.09-.62-.07-.67a2.24,2.24,0,0,1-.49-.45l.13-.47-.23-.52a6,6,0,0,0,0-.69l-10.7.21L3.65,205.25l12.07.22,19.59,0c-.07-.32-.53-.38-.72-.43s-.78-1.18-.78-1.18a3.11,3.11,0,0,0-.63-.18c-.41-.09-.34-.69-.34-.69l-.32-.31a1.88,1.88,0,0,0-.57.22,1.47,1.47,0,0,0-.53-.09l-.63-.79s-.68-.47-.77-.52-.33-.52-.48-.69-.45-.08-1.05-.09-.81-.51-.72-.66a1,1,0,0,0,.11-.52c0-.22.2-2.35.2-2.35s.24-.64.43-1a2.21,2.21,0,0,0,.72-.61l.82-.22.8-.63a3.54,3.54,0,0,1,.59-.33,2.8,2.8,0,0,0,2.59-2,2.28,2.28,0,0,1,.69-1,8.55,8.55,0,0,0,1-.79l.79-1c.42-.53,1.49-.23,1.74-.16a3.53,3.53,0,0,1,.94.3,2.28,2.28,0,0,1,1.12.08c.24.09.39-.08.56-.2s.11-.37,0-.65a1,1,0,0,0-.64-.39.34.34,0,0,0-.16,0,2.63,2.63,0,0,1-.45-.11c-.19,0-.28-.22-.48-.47s-.35-.7-.21-.93a1.9,1.9,0,0,0,0-1.27,7.73,7.73,0,0,0-1.5-1.91c0-.67.17-.67.66-.82.07-.16.51-.45.51-.45l.34.13a3.4,3.4,0,0,0,.56,0c.36.22.1,1,.1,1Z" transform="translate(0.25 0.25)"/>
  <polygon id="marion" class="county" points="55.26 55.97 55.42 53.99 21.87 52.7 19.52 72.7 33.16 73.27 33.12 75.57 35.43 75.67 35.29 76.95 35.33 83.42 41.01 83.53 48.8 83.99 55.03 83.95 55.03 77.31 55.03 77.29 55.24 61.81 55.36 60.81 55.24 60.43 55.26 55.97"/>
  
  <path id="pickens" class="county" d="M41.56,134.24l.19-21H35s-7.32-.23-8.63-.52c-1.29,0-9.52-.35-11.82-.43l-4.84,41.2,10.7-.21c0-.14,0-.29,0-.48a1.5,1.5,0,0,1,1.32-1.54l.39-.51-.2-.44.3-.43.56.22,1.09-.33.54.56.47-.26.39.27.3-.27.45.17a1.62,1.62,0,0,0,.16-.54.75.75,0,0,0,.37-.55c.69-.25.95.76.95.76l.43.1.35.23.42-.36h.34l.07-.33-.31-.55v-.44l.41.34.23-.08c-.23-.62.19-.71.54-.82a1.72,1.72,0,0,0,.79-.44,2,2,0,0,0,1.58-.41c.22-.15.49,0,.63,0a1,1,0,0,0,.51-.53c.06-.22.34-.26.53-.33s.46-1,.55-1.2a10.67,10.67,0,0,1,2-1.28.81.81,0,0,1,.76.05l.25-.49,1.49-.77,1.73-.61a2.28,2.28,0,0,0,.87-.56,1.49,1.49,0,0,1,0-.21A57.87,57.87,0,0,0,41.56,134.24Z" transform="translate(0.25 0.25)"/>
  
  <path id="russel" class="county" d="M225.9,205.4c-.66-.6-3.22-1.49-3.91-1.87s-.55-.78-.49-1.35.09-.52.26-.66a2.87,2.87,0,0,0,.86-.9c.17-.4.26-.74.58-1s0-.37-.46-.71.11-.58.52-.58.26-.35-.12-.92.46-1.38.72-1.79-1.29-1.52-1.73-1.95-.55-3.32-.69-4.39l-3.54.1.15,2.89-17.47.69.11,2.06.22,2.22-1.6.13-5.11.05.14,2.66.1,9s.08.92.11,1.7c0,.33,0,.64,0,.84a8.12,8.12,0,0,0,.13,1.56c.06.54.28,3.11.28,3.11v1.06l1.12,0h0l2.56-.13,7.11-.1v.56a8.59,8.59,0,0,1,1.48,1.15l-.61.13v.44l.86-.11s.33,1.77,1,1.75a.84.84,0,0,1,.82.73c.27,0,.67-.07.56.4l.22.12s-.22.52,0,.7.41.39.44.57c.38,0,4.74-.18,4.74-.18l0-.45.56-.12-.11.55,3,0c0-.64-.08-1.15-.08-1.22a1.64,1.64,0,0,1,.34-.86,9.37,9.37,0,0,0-.63-3.17c-.18-.29,2.73-3.57,3-3.89a18.53,18.53,0,0,1,2.76-1.06c.49-.23,0-.26-.34-.52s-.23-.55-.17-.89,2-.46,2.41-.52a1.45,1.45,0,0,0,1-.69.77.77,0,0,0-.17-1.18c-.46-.37.08-.49.54-.52a2.64,2.64,0,0,0,1.44-1C229,207.59,226.57,206,225.9,205.4Z" transform="translate(0.25 0.25)"/>
  
  <path id="covington" class="county" d="M146.88,304.82l-.07-2.13-.23-12.16v0l-.1-18.81v0h-4.4l.11-1.08H141l-.1-5.5h-1.3l-1.18,1.11-.21.53s-.22,0-.47.11a2.58,2.58,0,0,1-.63,1.07,1.63,1.63,0,0,0-.84.42c-.91-.56-1.21.88-1.21.88l-.42.2a3.59,3.59,0,0,1-1.42,1.52l-.07-5.75-6.35.24h0l-13.16,0,.09,6.69a10.5,10.5,0,0,1,1.67,0c.08.1.25.14.16.3a.5.5,0,0,0,0,.58c.17.18.43.44.18,1.36.24.22.32.31.32.31a3.46,3.46,0,0,1-.33,1,1.91,1.91,0,0,0,.17,1.44c-.07.34-.25.48-.78.58,0,.31-.07.73-.3.75s-.36.21-.46.45h-.56l-.19.24.22.32v25.87l33.34.17C147.25,304.61,146.88,304.82,146.88,304.82Z" transform="translate(0.25 0.25)"/>
  
  <path id="barbour" class="county" d="M218.65,223.49l-3,0,.11-.55-.56.12,0,.45s-4.36.18-4.74.18c0-.18-.27-.38-.44-.57s0-.7,0-.7l-.22-.12c.11-.47-.29-.44-.56-.4a.84.84,0,0,0-.82-.73c-.68,0-1-1.75-1-1.75l-.86.11v-.44l.61-.13a8.59,8.59,0,0,0-1.48-1.15v-.56l-7.11.1-2.56.13h0l.14.54-.4,0c-.12,0-.83.12-.83.12v6.62l.11,2.75-.86.13h-1.29l-.12-.67h-.43v.65H190l-.34.14.11,1h-1.17l-.34.33a.53.53,0,0,0-.5-.25c-.37,0-2.86.23-2.86.23s-.3.23-.31.4a1.47,1.47,0,0,1-.17.69,4.09,4.09,0,0,0-.52.81,4,4,0,0,1-1.23,2.25,3.06,3.06,0,0,0-.6.67c-.25.38-1.14,1.89-1.14,1.89v.62l-.32.56a1.44,1.44,0,0,1-.24,1,1.1,1.1,0,0,1-.26.27c-.19.42-.58,1.57-.58,1.57v1.61a5.52,5.52,0,0,0-.09,1c0,.09.23.36.19.44a1.74,1.74,0,0,0,.11,1.5c.22.27.74.77.28,1.37-.12.2,0,.3-.05.52s-.06.56-.89,1.18-1.51.86-1.48,1.95c0,.87,0,1.06-.09,1.17a.92.92,0,0,1-.28,1c-.37.29-.52.42-.46.72a7.35,7.35,0,0,1,0,2.14c.12.29.21.81-.48,1.85a1.11,1.11,0,0,0-.25.54.72.72,0,0,1-.3.56c-.19.14-.63.39-.89.58l3.88-.06,12.75-.44,4.89.13h0v-6.67l5.53,0L209,251l.29-.64.22-1.89c0-.31,0-.64.44-.73a6.09,6.09,0,0,0,2.22-1.53,3.19,3.19,0,0,1,.39-.52c.23-.28.47-.19.65-.18a7.13,7.13,0,0,1,1.22.47,2.85,2.85,0,0,0-.75-1c-.2-.15.15-1.41.26-1.76a10.42,10.42,0,0,0-.4-2.56c-.15-.54.69-2.59.72-2.85a1.44,1.44,0,0,0-.38-1.09c-.34-.4.92-.43,1.24-.55s.06-1.15.06-1.24,1.5-1.61,1.69-2a2.58,2.58,0,0,0,0-1.44c0-.49.67-.95,1-1.21s0-1.41-.05-1.84.63-1.3.83-1.73A16.4,16.4,0,0,0,218.65,223.49Z" transform="translate(0.25 0.25)"/>
  
  <path id="henry" class="county" d="M219.2,260.64c-.29-.41-.2-3.17-.23-3.57s-.9-1.13-1.47-1.41-.09-.84,0-1.18-1.56-2-2.16-2.45a1.47,1.47,0,0,1-.58-1.5,7.06,7.06,0,0,0-.37-4.6,7.13,7.13,0,0,0-1.22-.47c-.18,0-.42-.1-.65.18a3.19,3.19,0,0,0-.39.52,6.09,6.09,0,0,1-2.22,1.53c-.42.09-.44.42-.44.73l-.22,1.89L209,251l-7.08-.12-5.53,0v6.67h0l.1,5.47.11,2.32s.06,14.47.08,15.2l10.63.17,4.63.23,5.68-.2c.12-.47.22-1,.32-1.47a5.69,5.69,0,0,0-.8-2.68c-.21-.37.86-2.33,1.09-2.68s0-1.43,0-1.89.31-.44.52-.81a14.42,14.42,0,0,0-.17-3.63,15.16,15.16,0,0,0,1.69-4.63C220.43,262.28,219.49,261,219.2,260.64Z" transform="translate(0.25 0.25)"/>
  
  <path id="geneva" class="county" d="M192.42,289.44l-14.79.52h0l-5.06-.12h0l-21,.56,0,.77H151l0-.75-4.41.07v0l.23,12.16.07,2.13s.37-.21.31.64l3.58,0,41.72-1,.12-4.19Z" transform="translate(0.25 0.25)"/>
  
  <path id="houston" class="county" d="M223.71,303.72c-.19-1-.45-2.47-.48-2.93a4.85,4.85,0,0,0-.9-2,5.52,5.52,0,0,1-.51-2.16c0-.75-2.31-3.22-2.68-3.94s-.69-.72-1.35-.92-.55-1.3-.55-1.38a5.11,5.11,0,0,0-.63-1,14.58,14.58,0,0,1,.57-2.71s-.92-3.28-1.09-3.62,1-1.21,1.24-1.55a2.71,2.71,0,0,0,.28-.78l-5.68.2-4.63-.23-10.63-.17v0c0,.46,0,2.2,0,2.2h-4.38v3s-.31.05-.43,0a.43.43,0,0,0-.44,0c-.16.07-.41.1-.46,0a2.62,2.62,0,0,0-1.17-.63,2.13,2.13,0,0,1-1.63-.13,8.71,8.71,0,0,1-1.27-.52,1.83,1.83,0,0,1-.52,0,5.21,5.21,0,0,1-1.15-.35,2.44,2.44,0,0,0-1.43-.41c-.48.14-1,.17-1.19,0l-.35.12-.95,0a.76.76,0,0,1-.29.25,3.65,3.65,0,0,0-.49.31l-.62.94.33.24s0,.29-.09.39a.55.55,0,0,0-.22.29.72.72,0,0,1-.38.3c-.12.05-.62.21-.5,1.18-.15,0-.34.19-.12.4a1.15,1.15,0,0,0-.1.45c0,.25-.08.59-.43.54-.06.23-.09.26-.25.36s-.48.23-.52.5h0l14.79-.52.19,10.84-.12,4.19Z" transform="translate(0.25 0.25)"/>
  
  <path id="lee" class="county" d="M217.9,189.43l3.54-.1a1,1,0,0,0,0-.19c-.14-.86-3.19-3.86-4.17-5a6.8,6.8,0,0,1-1.24-2.47,1.22,1.22,0,0,1,0-1.41c.35-.52-.31-.52-.92-.67s.09-1.12.35-1.32-.92-2.13-1.39-3.22a3.13,3.13,0,0,1-.25-2.16c.11-.38.14-.66-.44-.87a1.79,1.79,0,0,1-.66-.37l-6.95.23-2.49,0,.13,1.13a1.1,1.1,0,0,1-.58.11l-7.07.1v-.51h-.54v-.55h-1.08v1.06l-3.35.12.12-.68h-.65l.12.56-4.95.23v-.58h-.65l.12.58-1.09.08H182.7v1.08l-4.43.19.1,1.08-1.06.14-.12,1.41.09,4.66.12.37v2.24l1.13,0,1.05-.13a2.91,2.91,0,0,0,.12,1.19,6.22,6.22,0,0,0,.88.34L190.68,191h3.21l.12,1.16v1.54l.2,3.82,5.11-.05,1.6-.13-.22-2.22-.11-2.06,17.47-.69Z" transform="translate(0.25 0.25)"/>
  <polygon id="coffee" class="county" points="172.79 275.02 172.71 273.03 172.59 258.2 160.02 258.19 149.66 258.43 149.63 258.43 149.85 264.44 148.99 264.56 148.99 265.12 146.63 265.12 146.6 270.3 146.73 271.9 146.73 271.93 146.83 290.74 151.24 290.67 151.22 291.42 151.8 291.42 151.78 290.65 172.79 290.09 172.79 275.02"/>
  
  <path id="chambers" class="county" d="M211,167.29c-.43-.2-.57-1.09-.6-1.52a2.81,2.81,0,0,1,.66-1.58c.43-.64-.31-.95-1-.72s-.84-1-.84-1L206,144.3l-15.83.09-6.79.34h0l.46,28.75,1.09-.08-.12-.58h.65v.58l4.95-.23-.12-.56h.65l-.12.68,3.35-.12v-1.06h1.08v.55h.54v.51l7.07-.1a1.1,1.1,0,0,0,.58-.11l-.13-1.13,2.49,0,6.95-.23a2.12,2.12,0,0,1-.6-.89c-.26-.69.66-.92,1.09-1.44S211.4,167.5,211,167.29Z" transform="translate(0.25 0.25)"/>
  
  <path id="macon" class="county" d="M194.44,209.17l-.1-9-.14-2.66-.2-3.82v-1.54l-.12-1.16h-3.21l-10.12-4.85a6.22,6.22,0,0,1-.88-.34,2.91,2.91,0,0,1-.12-1.19l-1.05.13-1.13,0V183.6l-1.06.1v1l-5.5.11,0,.67.16,1.08,0,3.44.12,1.36-5.72.21a.7.7,0,0,0,.16.2c.15.1.89.8,1.24.79a4.47,4.47,0,0,1,.64,0l.11.19s-.13.18-.26.13a1,1,0,0,0-1.15.24.45.45,0,0,1-.05.36c-.06.05-.39.39-.15.71-.18.08-.44.31,0,.39a.87.87,0,0,1-1,.31,3.24,3.24,0,0,0-1.1-.16,1.23,1.23,0,0,1-.6-.08.86.86,0,0,0-.67,0,2.58,2.58,0,0,1-1.89.86c-.14-.54-.23-.85-.73-.9-.17,0-.58,0-.46.21s.29.35.29.43c-.16.19-.36.41-.47.43s-.28-.23-.28-.37,0-.62-.25-.62l-.27.57c.13.33.32,1,.18,1.11a2.9,2.9,0,0,1-1,.18,1.83,1.83,0,0,1-.93.66,1,1,0,0,1,.1.15,1.87,1.87,0,0,1,0,.67c.06.15.15.17.18.12s.19-.11.22,0a.79.79,0,0,0,.27.35.4.4,0,0,0-.09.38c.05.15.14.52,0,.67a.42.42,0,0,0,0,.55,2.63,2.63,0,0,0,.34.41.77.77,0,0,1,.22.34,1.43,1.43,0,0,0,.29.52.78.78,0,0,1,.34.76.8.8,0,0,1,.13.63,2.11,2.11,0,0,1,.19.66c.14.18.5.48,1.49.36.17,0,.14.32.13.5a3.53,3.53,0,0,1,.65.79c-.22.17-.19.66.53,1.62a1.67,1.67,0,0,0,.92.68c.22.1.83.37.84.87h.07l1.19-.18v-2.32c.06,0,.23.06.33.3a1.11,1.11,0,0,0,.8.58c.39.09.62.75.68.89a6.7,6.7,0,0,1,0,1.23,1.05,1.05,0,0,1-.16.61c-.12.16-.1.39-.12.74s.53.77.85,1a.94.94,0,0,0,.6.23l26.92-.44C194.52,210.09,194.44,209.17,194.44,209.17Z" transform="translate(0.25 0.25)"/>
  
  <path id="randolph" class="county" d="M201,116.18c-.48-.73-.76-.74-.95-.75a10.65,10.65,0,0,1-1.18-.42c-.19-.05-.3-.15-.46-.57-.08.12-.31.16-.51.16s0,.23.14.43-.13.18-.13.18l-7.1-.13-3,.12h-8l-.22,13h.56v.32h-.24v.24h.22v.83h-.54l-.11,6h.34v1.07h-.35s.15,6.76.13,8.09h0l3.73-.09h0l6.79-.34L206,144.3Z" transform="translate(0.25 0.25)"/>
  
  <path id="bullock" class="county" d="M195.81,218l.4,0-.14-.54-1.12,0v-1.06s-.22-2.57-.28-3.11a8.12,8.12,0,0,1-.13-1.56c0-.2,0-.51,0-.84l-26.92.44a.94.94,0,0,1-.6-.23c-.32-.25-.87-.68-.85-1s0-.58.12-.74a1.05,1.05,0,0,0,.16-.61,6.7,6.7,0,0,0,0-1.23c-.06-.14-.29-.8-.68-.89a1.11,1.11,0,0,1-.8-.58c-.1-.24-.27-.32-.33-.3V208l-1.19.18h-.07l-4.21.17v1.75h-.89l.35,12.18,0,2.89c.13,0,.26,0,.26.08s0,.24.06.25.48,0,.48,0,0-.32,0-.32.18-.07.18.06.13.81.13.81h1.06l-.11-1.07s.34,0,.32-.33c.17,0,.21.07.2-.29a.87.87,0,0,1,.32,0l0,.62,2.48-.1v.52h1.08s.15,3.71.08,4.4h.34v.57H166v1.07h6v.47a32.29,32.29,0,0,0-.06,3.94,14.73,14.73,0,0,1,0,2.15l8.41-.08a1.44,1.44,0,0,0,.24-1l.32-.56v-.62s.89-1.51,1.14-1.89a3.06,3.06,0,0,1,.6-.67,4,4,0,0,0,1.23-2.25,4.09,4.09,0,0,1,.52-.81,1.47,1.47,0,0,0,.17-.69c0-.17.31-.4.31-.4s2.49-.22,2.86-.23a.53.53,0,0,1,.5.25l.34-.33h1.17l-.11-1,.34-.14h2.36v-.65h.43l.12.67h1.29l.86-.13-.11-2.75v-6.62S195.69,218,195.81,218Z" transform="translate(0.25 0.25)"/>
  
  <path id="cleburne" class="county" d="M194.55,79.3H194l0,.34h-1.09l0,.19-4.31.14,0,1.15-2.25,0v4.06l-4.43-.09v1.19h-2.16v2.15l2.77,0,.49.12v3.24h-1.09v1.07l-1.09.13v1.06h-1l0,6.59.1,2.88h-.54v.55h-.35v.29h-.21v.77h-2.16v1.21h-1.57l-.69-.17.1.83v.44a4,4,0,0,0-1.18-.13c0,.27.14,1.42.14,1.42l-.14,1.9H170a11.07,11.07,0,0,0,0,1.22l-3.32,3.36h0l-.09.4-1.08.12v1.07h-1.11v.53H171v-1.12h1.14v-1.16l4.82,0,2.78.11h8l3-.12,7.1.13s.31,0,.13-.18-.34-.43-.14-.43.43,0,.51-.16c.16.42.27.52.46.57a10.65,10.65,0,0,0,1.18.42c.19,0,.47,0,.95.75Z" transform="translate(0.25 0.25)"/>
  
  <path id="dale" class="county" d="M196.67,280.55v0c0-.73-.08-15.2-.08-15.2l-.11-2.32-.1-5.47-4.89-.13-12.75.44-3.88.06-2.5,0h0l.11,14.83.09,2v15.07h0l5.06.12c0-.27.4-.43.52-.5s.19-.13.25-.36c.35,0,.42-.29.43-.54a1.15,1.15,0,0,1,.1-.45c-.22-.21,0-.36.12-.4-.12-1,.38-1.13.5-1.18a.72.72,0,0,0,.38-.3.55.55,0,0,1,.22-.29c.13-.1.09-.39.09-.39l-.33-.24.62-.94a3.65,3.65,0,0,1,.49-.31.76.76,0,0,0,.29-.25l.95,0,.35-.12c.17.16.71.13,1.19,0a2.44,2.44,0,0,1,1.43.41,5.21,5.21,0,0,0,1.15.35,1.83,1.83,0,0,0,.52,0,8.71,8.71,0,0,0,1.27.52,2.13,2.13,0,0,0,1.63.13,2.62,2.62,0,0,1,1.17.63c0,.08.3,0,.46,0a.43.43,0,0,1,.44,0c.12.09.43,0,.43,0v-3h4.38S196.69,281,196.67,280.55Z" transform="translate(0.25 0.25)"/>
  
  <path id="Pike" class="county" d="M179.57,239.77s.39-1.15.58-1.57a1.1,1.1,0,0,0,.26-.27L172,238a14.73,14.73,0,0,0,0-2.15,32.29,32.29,0,0,1,.06-3.94v-.47h-6v-1.07h-.31v-.57h-.34c.07-.69-.08-4.4-.08-4.4h-1.08v-.52l-2.48.1,0-.62a.87.87,0,0,0-.32,0c0,.36,0,.32-.2.29,0,.3-.32.33-.32.33l.11,1.07h-1.06s-.12-.69-.13-.81-.15-.07-.18-.06,0,.27,0,.32-.38,0-.48,0-.06-.15-.06-.25-.13-.08-.26-.08l.07,5.4.09,1-12.63.2a.46.46,0,0,0,.11.32,1.28,1.28,0,0,1,.26.62,3.87,3.87,0,0,0,.29,1.16,1.73,1.73,0,0,1,.3,1.14c-.07.52-.16,1.42.21,1.82.24.24.16.43.05.54l-.34.34a8,8,0,0,1,0,1s-.64.86-.09,1.28a4.83,4.83,0,0,1-.32.47.52.52,0,0,0,0,.68c.26.3.35.45.29.55s-.41.62-.41.62-.16.4-.33.49a.71.71,0,0,1-.44.88c0,.31,0,1.49,0,1.49l3.39-.09.07,1.94-.09,7.36s0,.43-.52.38c-.26.27-.47.5-.26.85-.09.43-.22.86-.51.95-.05.44-.23.74-.66.77,0,.64,0,1,0,1l2.14-.12h0l10.36-.24h12.59l2.5,0c.26-.19.7-.44.89-.58a.72.72,0,0,0,.3-.56,1.11,1.11,0,0,1,.25-.54c.69-1,.6-1.56.48-1.85a7.35,7.35,0,0,0,0-2.14c-.06-.3.09-.43.46-.72a.92.92,0,0,0,.28-1c.06-.11.1-.3.09-1.17,0-1.09.76-1.4,1.48-1.95s.87-1,.89-1.18-.07-.32.05-.52c.46-.6-.06-1.1-.28-1.37a1.74,1.74,0,0,1-.11-1.5c0-.08-.15-.35-.19-.44a5.52,5.52,0,0,1,.09-1Z" transform="translate(0.25 0.25)"/>
  
  <path id="Colbert" class="county" d="M68.71,18.79a4.79,4.79,0,0,0-.9-.57s.31-1.28.4-1.83c0,0,0,0,0,0-.46-.52-3.22-.94-3.53-1s-.29-.16-.34-.22-1-.47-1.18-.53-.23-.46-.26-.54a2,2,0,0,0-.83-.14.79.79,0,0,0-.45.22c-.09.07-.52-.06-.72-.12s-.61.33-.61.33h-.84a9.77,9.77,0,0,1-1.08.52c-.17,1.12-1.61,1.48-2.05,1.56a17.72,17.72,0,0,0-1.79.48,14.28,14.28,0,0,1-2.47,1,4.67,4.67,0,0,0-2.8,2.32,7.08,7.08,0,0,0-2.34,1.05c-3.65.64-5.07-1.44-5.38-2a26.09,26.09,0,0,0-3.14-2.78A3.68,3.68,0,0,1,37,13.82a5.63,5.63,0,0,0-3.54-4.44,7.28,7.28,0,0,1-2.39-1.22A3.06,3.06,0,0,0,28,8.87s-.53,0-1.29-.13c.31.27,0,.7,0,.7L24,32.58l12.34.76L61.82,34s0,.28-.07.65a2.92,2.92,0,0,0,.37-.59l.36-.1-.12-.45s.25-.28.5-.53a.54.54,0,0,0,0-.74c-.12-.15-.08-.24-.17-.56a3.37,3.37,0,0,0,.65-.78,5,5,0,0,0,0-.64,3.92,3.92,0,0,1,1.18-1.08.85.85,0,0,1,.32-.51c-.1-.1-.1-.5-.1-.66s.16-.17.28-.19a5.54,5.54,0,0,1,1,.31l.63-.2c.45-.54.17-1.71.15-2.21a1.45,1.45,0,0,1-.1-1.27c.11-.36.39-.4.6-.48s.21-.13.3-.3.24-.22.61-.44c-.61-1.2-.42-1.65-.37-1.82s.68-.64.68-.64a4.44,4.44,0,0,1-.31-.51c-.09-.17.34-.9.45-1S68.72,18.88,68.71,18.79Z" transform="translate(0.25 0.25)"/>
  
  <path id="Lauderdale" class="county" d="M81.58,1.46C58.18.91,21.7,0,20.78,0c-1.36-.06,2,5.3,2.48,6.1a9.61,9.61,0,0,0,3.22,2.52.62.62,0,0,1,.23.12c.76.09,1.29.13,1.29.13a3.06,3.06,0,0,1,3.08-.71,7.28,7.28,0,0,0,2.39,1.22A5.63,5.63,0,0,1,37,13.82a3.68,3.68,0,0,0,1.37,2.7,26.09,26.09,0,0,1,3.14,2.78c.31.52,1.73,2.6,5.38,2a7.08,7.08,0,0,1,2.34-1.05A4.67,4.67,0,0,1,52,17.89a14.28,14.28,0,0,0,2.47-1,17.72,17.72,0,0,1,1.79-.48c.44-.08,1.88-.44,2.05-1.56a9.77,9.77,0,0,0,1.08-.52h.84s.4-.39.61-.33.63.19.72.12a.79.79,0,0,1,.45-.22,2,2,0,0,1,.83.14c0,.08.12.49.26.54s1.13.47,1.18.53,0,.14.34.22,3.07.51,3.53,1a17.48,17.48,0,0,0,2.56-.15c.39-.1,2.42-.54,3.32.87.55,1.11.78,1.48.78,1.48l.83.85s1.23.74,1.58.64a10.14,10.14,0,0,0,1.23-.45c-.42-.23-.39-.39-.39-.51s-.68-.67-.68-.67l.08-.52s.43-.23,1.2-.56c2.93-2,2.6-2.24,2.6-2.24S81.53,3.65,81.59,3A10.77,10.77,0,0,0,81.58,1.46Z" transform="translate(0.25 0.25)"/>
  
  <path id="franklin" class="county" d="M36.29,33.34,24,32.58,21.62,52.45l33.55,1.29,6.45.24c0-2.81.08-17.62.08-18.25,0-.33,0-.74,0-1.08s.07-.65.07-.65Z" transform="translate(0.25 0.25)"/>
  
  <path id="Limestone" class="county" d="M100.85,1.92,81.58,1.46a10.77,10.77,0,0,1,0,1.5c-.06.69-.29,12.14-.29,12.14s.33.24-2.6,2.24c-.77.33-1.2.56-1.2.56l-.08.52s.67.54.68.67,0,.28.39.51l.29-.13a3.07,3.07,0,0,1,2.83.15c.34.26.78.63.78.63a3,3,0,0,1,1.52.51c.79.53,2.27,1.68,2.27,1.68A4,4,0,0,0,87,24.15c.23.21.63.57,1,1a9.58,9.58,0,0,1,1.23,1.31,10.47,10.47,0,0,1,2.13,1.52c.5-.19.78-.25,1-.17a2.22,2.22,0,0,1,.87.61,1.84,1.84,0,0,0,.65.61,3.2,3.2,0,0,1,1.16.74l1.33,1.11a16.32,16.32,0,0,1,2.69,1.76,22.69,22.69,0,0,0,4.16,1.59,8.74,8.74,0,0,1,1.38.85,9.26,9.26,0,0,0,1.62.1,9,9,0,0,0,1.36.31c.08-3.39.26-28.74.29-33.54Z" transform="translate(0.25 0.25)"/>
  
  <path id="Jackson" class="county" d="M180.62,1.69l-43.51.13A1.76,1.76,0,0,1,137,2.9a1.17,1.17,0,0,0,.73.34c.1,0,.43.1,1,1.29l.64.1a1,1,0,0,0,.48.44c.32.13.69.61.55,1.65l-.57.29-.48-.41-.5-.88a1.47,1.47,0,0,1-.74-.43,11.4,11.4,0,0,0-1.05.64s-.77-.3-1,.09a.66.66,0,0,0,.28.65c.23.19,1.34,1.44-.07,1.95l-1,.62,0,.68-.62.86.26.54,0,.64.64.74a3.51,3.51,0,0,0,0,.79c.07,0,.52.71.1,1.07a5.37,5.37,0,0,0-.44.45l-.3.85a1.77,1.77,0,0,1,.24.57.41.41,0,0,0,.18.4.43.43,0,0,1,.21.34,1.64,1.64,0,0,0-.33,1.43c.19.62.33,1,.33,1l-.32.39-.2.6-.79.67-.14,7.87,2.24,1.71s-.39,0-.37.37a.46.46,0,0,0,.19.34h11.13l0,2.53-.1,1.47.38.46-.1,1.3.33-.07.82-.69a2.12,2.12,0,0,0,.49.64l.35-.33a2.64,2.64,0,0,1,.27.64c.39,0,1,0,.8.27s-.35.4-.35.4a5.36,5.36,0,0,1,.21,1.84l.54.36s-.1,1.33.21,1.34a1,1,0,0,0,.88-.36,1.62,1.62,0,0,1,1-.48,1.66,1.66,0,0,1,.63,0c.73.13,1.24.15,1.41-.08a.76.76,0,0,1,1.06-.25,2.78,2.78,0,0,0,1-.57c.26,0,.33,0,.38-.16a1.23,1.23,0,0,0,.88-.55c.42-.17.55-.24.55-.24a7.8,7.8,0,0,1,2.61-2.79,5.93,5.93,0,0,0,.54-.67L168,30.92l1.74-1.49s3.49-5.31,3.84-6.36a3.54,3.54,0,0,0,.59-.84l1.14-2,1.33-.09.87-.84A23.51,23.51,0,0,1,179,16.09a9.73,9.73,0,0,1,0-1.21l.28-1.28s1.52-1.24,1.52-1.31,0-.48,0-.48a.39.39,0,0,0,.28,0,10.13,10.13,0,0,0,.88-.66Z" transform="translate(0.25 0.25)"/>
  
  <path id="Dekalb" class="county" d="M182.82,16.35,182,11.11a10.13,10.13,0,0,1-.88.66.39.39,0,0,1-.28,0s0,.4,0,.48-1.52,1.31-1.52,1.31l-.28,1.28a9.73,9.73,0,0,0,0,1.21,23.51,23.51,0,0,0-1.47,3.21l-.87.84-1.33.09-1.14,2a3.54,3.54,0,0,1-.59.84c-.35,1.05-3.84,6.36-3.84,6.36L168,30.92l-5.92,4.62a5.93,5.93,0,0,1-.54.67A7.8,7.8,0,0,0,159,39s-.13.07-.55.24a1.23,1.23,0,0,1-.88.55c0,.19-.12.19-.38.16a2.78,2.78,0,0,1-1,.57.76.76,0,0,0-1.06.25c-.17.23-.68.21-1.41.08a1.66,1.66,0,0,0-.63,0l-3.23,3.79v4.87l.2,2.64.21,9.72,2.31,0,2.11.12a9,9,0,0,0,1.34-.12l10.53-.11,0-3.34s.67.14.77.18a.39.39,0,0,0,.33,0c.11-.05.43.17.48.21a2.11,2.11,0,0,0,.55-.13V57.22s1.2,0,1.7,0a.78.78,0,0,0,.69-.26l5.88-6.3a1.14,1.14,0,0,0-.08-.22,2.37,2.37,0,0,1,.43-.52l0-.35.3-.31.87-.1c.14,0,.27-.3.32-.42s.14,0,.18.17.3.07.36-.09a.86.86,0,0,1,.33-.4c.09,0,.07-.27,0-.53s.33-.18.33-.18l.27-.42-.28-.37a.57.57,0,0,0-.2-.11c-.1,0,0-.15.05-.26s.34.17.48.26a.21.21,0,0,0,.33-.11,2.45,2.45,0,0,1,.5-1.27c.06,0,.29-.18.33-.26s-.08-.45-.08-.45a7.67,7.67,0,0,0,.78-.34s-.17-.28-.17-.28l.45-.23a1.7,1.7,0,0,1,.15-.4c.36-.21,0-1.13-.1-1.54.41-.09.23-.62.19-.79s.08-.16.17-.18.46.32.46.32-.11-.68-.14-.92a.52.52,0,0,1-.31-.4,1.06,1.06,0,0,0,.47-.44c.09-.12.16-.07.49-.08s.19-.62.12-.91.42-.07.5,0,.2.26.38.19a3.75,3.75,0,0,1,.45-.88c.23-.41.34-.44.83-.46-.24-.53,0-.63,0-.69s.14-.08.48.06Z" transform="translate(0.25 0.25)"/>
  
  <path id="Madison" class="county" d="M139.83,5.07a1,1,0,0,1-.48-.44l-.64-.1c-.55-1.19-.88-1.27-1-1.29A1.17,1.17,0,0,1,137,2.9a1.76,1.76,0,0,0,.11-1.08l-29.2.08c0,4.8-.21,30.15-.29,33.54a2.46,2.46,0,0,0,1.22-.12,1.08,1.08,0,0,0,1-.25,12.26,12.26,0,0,0,.89-1l.29-.19a1.08,1.08,0,0,1,.14-.23,7.67,7.67,0,0,1,1.08-1,2.92,2.92,0,0,0,.72-.22,4.45,4.45,0,0,1,.86.36c.21,0,.21-.05.41.14a5.65,5.65,0,0,1,.5.61c0,.65-.08,1.52.6,1.79s1.33.42,1.62-.08,1.48-2.18,2.76-2.22a1.8,1.8,0,0,1,1.29.25l1.05.8s.71,1.31.42,1.78c0,.33,0,.56.14.63a11.37,11.37,0,0,1,.84,1.83,1.16,1.16,0,0,0,.8,1.35,12.26,12.26,0,0,1,1.31,1h.58a3.91,3.91,0,0,0,.62.16.92.92,0,0,1,.62.26c.2.18.82-.32,1.26-.62a2.26,2.26,0,0,1,1.64.42c1-1.7,1.36-1.42,1.79-1.36a4.16,4.16,0,0,1,.44-.6,1.78,1.78,0,0,1-.12-.69c0-.07-.11-.2-.17-.35s.2-.1.41,0c0-.58.74,0,1.08.3.26-.06.48-.37.66-.54.24-.42,1.47.93,1.47.93v-.26l.33-.12-.23-.35h.33l.19-.82s.58-.59.75-.73,0-.71,0-.71.24-.75.33-1,0-.33-.08-.31a.74.74,0,0,1-.69,0c-.17-.07-.48,0-.63-.09s-.08-.14-.14-.3.15-.27.34-.24a.35.35,0,0,1,.4-.26,7.67,7.67,0,0,0,1.34-.29c-.08-.16-.26-.15-.47-.27a.67.67,0,0,1,.15-.64c.13-.14-.07-.2-.24-.24a1.45,1.45,0,0,1-.59-.27.7.7,0,0,1-.66-.15.46.46,0,0,1-.19-.34c0-.33.37-.37.37-.37l-2.24-1.71.14-7.87.79-.67.2-.6.32-.39s-.14-.37-.33-1a1.64,1.64,0,0,1,.33-1.43.43.43,0,0,0-.21-.34.41.41,0,0,1-.18-.4,1.77,1.77,0,0,0-.24-.57l.3-.85a5.37,5.37,0,0,1,.44-.45c.42-.36,0-1-.1-1.07a3.51,3.51,0,0,1,0-.79L135,12l0-.64-.26-.54.62-.86,0-.68,1-.62c1.41-.51.3-1.76.07-1.95a.66.66,0,0,1-.28-.65c.2-.39,1-.09,1-.09a11.4,11.4,0,0,1,1.05-.64,1.47,1.47,0,0,0,.74.43l.5.88.48.41.57-.29C140.52,5.68,140.15,5.2,139.83,5.07Z" transform="translate(0.25 0.25)"/>
  
  <path id="Cherokee" class="county" d="M192.05,65.15l-5.37-28.39c-.34-.14-.41-.1-.48-.06s-.29.16,0,.69c-.49,0-.6,0-.83.46a3.75,3.75,0,0,0-.45.88c-.18.07-.31-.1-.38-.19s-.58-.3-.5,0,.21.9-.12.91-.4,0-.49.08a1.06,1.06,0,0,1-.47.44.52.52,0,0,0,.31.4c0,.24.14.92.14.92s-.36-.34-.46-.32-.21,0-.17.18.22.7-.19.79c.13.41.46,1.33.1,1.54a1.7,1.7,0,0,0-.15.4l-.45.23s.16.25.17.28a7.67,7.67,0,0,1-.78.34s.12.37.08.45-.27.21-.33.26a2.45,2.45,0,0,0-.5,1.27.21.21,0,0,1-.33.11c-.14-.09-.42-.36-.48-.26s-.15.23-.05.26a.57.57,0,0,1,.2.11l.28.37-.27.42s-.39-.08-.33.18.08.49,0,.53a.86.86,0,0,0-.33.4c-.06.16-.32.25-.36.09s-.12-.29-.18-.17-.18.41-.32.42l-.87.1-.3.31,0,.35a2.37,2.37,0,0,0-.43.52,1.14,1.14,0,0,1,.08.22L171.08,57a.78.78,0,0,1-.69.26c-.5,0-1.7,0-1.7,0v1.49a2.11,2.11,0,0,1-.55.13s-.37-.26-.48-.21a.39.39,0,0,1-.33,0c-.1,0-.77-.18-.77-.18l0,3.34h0l.22,5.53,0,1.22.69,0s1.31-1.94,2.36-1.31a2.12,2.12,0,0,1,.26.23s-.59.79-.47,1.24.37,1.32.39,1.64c.23.43,3.47,7.34,3.47,7.34s-.05.76-.1,1.63l13.14.74-.11,1.09h0l2.25,0,0-1.15,4.31-.14,0-.19H194l0-.34h.52Z" transform="translate(0.25 0.25)"/>
  
  <path id="Dallas" class="county" d="M106.62,211.41a4.16,4.16,0,0,1-.88.2c-.4.07-1.77-1.46-2-1.71a11.82,11.82,0,0,0-.5-1.14c-.27-.71,1-1.21,1-1.21l.11-.44.56-.24s.21-.21.64-.7a2.33,2.33,0,0,0-1.52-.24v-1.55l1.91-.84,0,0c.08-.06.31-.22.52-.39a2.76,2.76,0,0,0-1.32-2.82l-.18-.62a.48.48,0,0,0-.16-.18,2,2,0,0,1-.5-1.77,4.68,4.68,0,0,0,1-.42.51.51,0,0,0,.21-.26l-.3-.3a2,2,0,0,1-1.12-.57c-.1-.15-.22-.12-.37-.16s-.17,0-.34.07a1,1,0,0,1-.46,0,1.37,1.37,0,0,0,0-.36.77.77,0,0,0-.23-1.34c.07-.72-.87-1.63-.87-1.63s.07-.12.17-.33-.15-.82-.58-1.38a2.31,2.31,0,0,0-.72-1.82l.07-.44-.33-.22.1-1s.18-.42.24-.58a5.42,5.42,0,0,0-.06-1.38c-.07-.22-.36-2.16-.36-2.16l-.33-.89.09-1.15-.42-1a.49.49,0,0,1,.1-.24,1,1,0,0,1-.13-1.24l-3.44.06-2.78.12-.08-4.93a8.27,8.27,0,0,0-1.08,3.22s.07.46.2,1a10.34,10.34,0,0,0-.93,2,8.46,8.46,0,0,0-.15,1.91,3.33,3.33,0,0,0,.38.71.88.88,0,0,1,.11.86c-.08.28-.4.34-.74.46a16.79,16.79,0,0,0-1.92,1.54.92.92,0,0,0,.09.32c.05.06,0,.2,0,.38s.29.6.29.6l-.24,1.16a.39.39,0,0,1-.5.33,8.66,8.66,0,0,0-.39.91c-.26.13-.44.82-.41.94a.33.33,0,0,1,0,.3c-.07.13,0,.25,0,.47a.7.7,0,0,0-.51.73c0,.14-.41.33-.41.33H80.44a7.92,7.92,0,0,1-1,.11c-.08,0-12.07.09-12.07.09l0,13.4H64.22v3.24a1.63,1.63,0,0,0,1.54-.56c.44.11,1.13.38,1,.92A10.78,10.78,0,0,0,68,210.82a2.06,2.06,0,0,1,.57.52c.19-.08.54-.14.64-.27.37.15.56.29.55.56s-.1.69.74.73c.11.06.13.3.11.51a6.06,6.06,0,0,0,.31.79s.4.17.35.27a2,2,0,0,0-.12.4.4.4,0,0,0,.24,0l.41-.31a2.76,2.76,0,0,1,1.63.32c.28-.12.59,0,.52.25s-.21.72.46.84a11,11,0,0,0,.87,1.29l.39-.11s.56.24.55,1.4l.34.34a2.49,2.49,0,0,1,.53-.13c.16,0,1.19.27,1.19.52s0,.31-.06.44l-.62.88a1.33,1.33,0,0,0,.75-.09c.34.19.8.53.8.7s.21,1.39.83,1.43a2.41,2.41,0,0,1,.89.24.6.6,0,0,1,.64.24c.09.18.18.38.61.2.11,0,.4,0,.37.15a2.41,2.41,0,0,1-.31.54c-.06,0,0,.65.24.72s.88,0,.76.95c0,.16-.28.75-.28.75l17.57-.1-.12-11.43-.09-1.94h6.35Z" transform="translate(0.25 0.25)"/>
  
  <path id="Marengo" class="county" d="M62.19,206l-1.15.09S61,200.5,61,200.54s.16-1.18.16-1.18v-6.71h-13l0-3.22-5.3-.11c-.08.21-.27.37-.43.35s-.25-.15-.25-.4a4.75,4.75,0,0,1,0-.49l.3-.53s-.28-.59-.59-.52c-.41-.09-.82-.13-.9-.37a1.4,1.4,0,0,0-.64.69,1.16,1.16,0,0,1-.13.56,1,1,0,0,1,.64.39c.13.28.18.54,0,.65s-.32.29-.56.2a2.28,2.28,0,0,0-1.12-.08,3.53,3.53,0,0,0-.94-.3c-.25-.07-1.32-.37-1.74.16l-.79,1a8.55,8.55,0,0,1-1,.79,2.28,2.28,0,0,0-.69,1,2.8,2.8,0,0,1-2.59,2,3.54,3.54,0,0,0-.59.33l-.8.63-.82.22a2.21,2.21,0,0,1-.72.61c-.19.39-.43,1-.43,1s-.18,2.13-.2,2.35a1,1,0,0,1-.11.52c-.09.15.11.65.72.66s.91-.07,1.05.09.4.64.48.69.77.52.77.52l.63.79a1.47,1.47,0,0,1,.53.09,1.88,1.88,0,0,1,.57-.22l.32.31s-.07.6.34.69a3.11,3.11,0,0,1,.63.18s.55,1.13.78,1.18.65.11.72.43a.54.54,0,0,1,0,.18,3.44,3.44,0,0,0-.22.94c0,.15.26.5.21.57s-.11.39-.47.38h-.62a.27.27,0,0,1,.08-.31c.17-.16.82-1.06.26-1.44a.69.69,0,0,0-.33-.1s-.64.69-1.1.66-.58-.2-.6-.42a.35.35,0,0,0-.3-.37.85.85,0,0,0-.61.5c-.13.32-.1.38-.56.37s-.74-.06-.73.32.09.81,0,.79a.52.52,0,0,1-.33-.11c-.12-.09-.57-.34-.55-.24a.78.78,0,0,1,0,.37c0,.11-.2.85.18,1.1a1.22,1.22,0,0,1,.34,1.61c-.23.41-.45.7-.24,1.06s.53.86.42,1.15-.4,1.16-.4,1.16a2.68,2.68,0,0,1,.34,1.77A5.24,5.24,0,0,1,29,217.94c-.39-.05-1.17-.13-1.14.6a3,3,0,0,1-.21,1.64c-.24.4-.48,1-.39,1.15a2.83,2.83,0,0,1,.51,1.08c-.18.42-.25.45-.39.53a2.57,2.57,0,0,0-.77.67c-.09.2-.48.71-.58.6a4.53,4.53,0,0,0-1.13-.73,5,5,0,0,0-1.75,1.14c-.35.5-.23.58-.13.78a1.09,1.09,0,0,1,.18,1c-.12.57-.27,1.43-.27,1.43l.72,1.29.55.52s.2,0,.23-.14a2.65,2.65,0,0,0,.11-.62c0-.18-.06-.5.31-.41a2.7,2.7,0,0,0,.87,1.33l26,.18v-.86l2.91-.34,0-9.56,6.48.08v-9.36s.82-1.28,1.22-1.08a1.58,1.58,0,0,0,.76.2c.23,0,.7-.07.85,0a1.12,1.12,0,0,0,.35.12V206Z" transform="translate(0.25 0.25)"/>
</svg>
